<?xml version="1.0" encoding="utf-8" standalone="no"?>
<!DOCTYPE svg PUBLIC "-//W3C//DTD SVG 1.1//EN"
  "http://www.w3.org/Graphics/SVG/1.1/DTD/svg11.dtd">
<!-- Created with matplotlib (http://matplotlib.org/) -->
<svg height="286pt" version="1.1" viewBox="0 0 385 286" width="385pt" xmlns="http://www.w3.org/2000/svg" xmlns:xlink="http://www.w3.org/1999/xlink">
 <defs>
  <style type="text/css">
*{stroke-linecap:butt;stroke-linejoin:round;stroke-miterlimit:100000;}
  </style>
 </defs>
 <g id="figure_1">
  <g id="patch_1">
   <path d="M 0 286.43744 
L 385.651762 286.43744 
L 385.651762 0 
L 0 0 
z
" style="fill:#ffffff;"/>
  </g>
  <g id="axes_1">
   <g id="patch_2">
    <path d="M 43.651762 213.639062 
L 378.451762 213.639062 
L 378.451762 12.039062 
L 43.651762 12.039062 
z
" style="fill:#e5e5e5;"/>
   </g>
   <g id="matplotlib.axis_1">
    <g id="xtick_1">
     <g id="line2d_1">
      <path clip-path="url(#p32f64070b7)" d="M 66.40516 213.639062 
L 66.40516 12.039062 
" style="fill:none;stroke:#ffffff;stroke-linecap:square;stroke-width:0.5;"/>
     </g>
     <g id="line2d_2">
      <defs>
       <path d="M 0 0 
L 0 4 
" id="m8108e56155" style="stroke:#555555;stroke-width:0.5;"/>
      </defs>
      <g>
       <use style="fill:#555555;stroke:#555555;stroke-width:0.5;" x="66.405160387" xlink:href="#m8108e56155" y="213.6390625"/>
      </g>
     </g>
     <g id="line2d_3">
      <defs>
       <path d="M 0 0 
L 0 -4 
" id="mc74b63bfa2" style="stroke:#555555;stroke-width:0.5;"/>
      </defs>
      <g>
       <use style="fill:#555555;stroke:#555555;stroke-width:0.5;" x="66.405160387" xlink:href="#mc74b63bfa2" y="12.0390625"/>
      </g>
     </g>
     <g id="text_1">
      <!-- Feb 17 2016 -->
      <defs>
       <path d="M 48.6875 27.296875 
Q 48.6875 37.203125 44.609375 42.84375 
Q 40.53125 48.484375 33.40625 48.484375 
Q 26.265625 48.484375 22.1875 42.84375 
Q 18.109375 37.203125 18.109375 27.296875 
Q 18.109375 17.390625 22.1875 11.75 
Q 26.265625 6.109375 33.40625 6.109375 
Q 40.53125 6.109375 44.609375 11.75 
Q 48.6875 17.390625 48.6875 27.296875 
M 18.109375 46.390625 
Q 20.953125 51.265625 25.265625 53.625 
Q 29.59375 56 35.59375 56 
Q 45.5625 56 51.78125 48.09375 
Q 58.015625 40.1875 58.015625 27.296875 
Q 58.015625 14.40625 51.78125 6.484375 
Q 45.5625 -1.421875 35.59375 -1.421875 
Q 29.59375 -1.421875 25.265625 0.953125 
Q 20.953125 3.328125 18.109375 8.203125 
L 18.109375 0 
L 9.078125 0 
L 9.078125 75.984375 
L 18.109375 75.984375 
z
" id="BitstreamVeraSans-Roman-62"/>
       <path d="M 9.8125 72.90625 
L 51.703125 72.90625 
L 51.703125 64.59375 
L 19.671875 64.59375 
L 19.671875 43.109375 
L 48.578125 43.109375 
L 48.578125 34.8125 
L 19.671875 34.8125 
L 19.671875 0 
L 9.8125 0 
z
" id="BitstreamVeraSans-Roman-46"/>
       <path id="BitstreamVeraSans-Roman-20"/>
       <path d="M 19.1875 8.296875 
L 53.609375 8.296875 
L 53.609375 0 
L 7.328125 0 
L 7.328125 8.296875 
Q 12.9375 14.109375 22.625 23.890625 
Q 32.328125 33.6875 34.8125 36.53125 
Q 39.546875 41.84375 41.421875 45.53125 
Q 43.3125 49.21875 43.3125 52.78125 
Q 43.3125 58.59375 39.234375 62.25 
Q 35.15625 65.921875 28.609375 65.921875 
Q 23.96875 65.921875 18.8125 64.3125 
Q 13.671875 62.703125 7.8125 59.421875 
L 7.8125 69.390625 
Q 13.765625 71.78125 18.9375 73 
Q 24.125 74.21875 28.421875 74.21875 
Q 39.75 74.21875 46.484375 68.546875 
Q 53.21875 62.890625 53.21875 53.421875 
Q 53.21875 48.921875 51.53125 44.890625 
Q 49.859375 40.875 45.40625 35.40625 
Q 44.1875 33.984375 37.640625 27.21875 
Q 31.109375 20.453125 19.1875 8.296875 
" id="BitstreamVeraSans-Roman-32"/>
       <path d="M 33.015625 40.375 
Q 26.375 40.375 22.484375 35.828125 
Q 18.609375 31.296875 18.609375 23.390625 
Q 18.609375 15.53125 22.484375 10.953125 
Q 26.375 6.390625 33.015625 6.390625 
Q 39.65625 6.390625 43.53125 10.953125 
Q 47.40625 15.53125 47.40625 23.390625 
Q 47.40625 31.296875 43.53125 35.828125 
Q 39.65625 40.375 33.015625 40.375 
M 52.59375 71.296875 
L 52.59375 62.3125 
Q 48.875 64.0625 45.09375 64.984375 
Q 41.3125 65.921875 37.59375 65.921875 
Q 27.828125 65.921875 22.671875 59.328125 
Q 17.53125 52.734375 16.796875 39.40625 
Q 19.671875 43.65625 24.015625 45.921875 
Q 28.375 48.1875 33.59375 48.1875 
Q 44.578125 48.1875 50.953125 41.515625 
Q 57.328125 34.859375 57.328125 23.390625 
Q 57.328125 12.15625 50.6875 5.359375 
Q 44.046875 -1.421875 33.015625 -1.421875 
Q 20.359375 -1.421875 13.671875 8.265625 
Q 6.984375 17.96875 6.984375 36.375 
Q 6.984375 53.65625 15.1875 63.9375 
Q 23.390625 74.21875 37.203125 74.21875 
Q 40.921875 74.21875 44.703125 73.484375 
Q 48.484375 72.75 52.59375 71.296875 
" id="BitstreamVeraSans-Roman-36"/>
       <path d="M 31.78125 66.40625 
Q 24.171875 66.40625 20.328125 58.90625 
Q 16.5 51.421875 16.5 36.375 
Q 16.5 21.390625 20.328125 13.890625 
Q 24.171875 6.390625 31.78125 6.390625 
Q 39.453125 6.390625 43.28125 13.890625 
Q 47.125 21.390625 47.125 36.375 
Q 47.125 51.421875 43.28125 58.90625 
Q 39.453125 66.40625 31.78125 66.40625 
M 31.78125 74.21875 
Q 44.046875 74.21875 50.515625 64.515625 
Q 56.984375 54.828125 56.984375 36.375 
Q 56.984375 17.96875 50.515625 8.265625 
Q 44.046875 -1.421875 31.78125 -1.421875 
Q 19.53125 -1.421875 13.0625 8.265625 
Q 6.59375 17.96875 6.59375 36.375 
Q 6.59375 54.828125 13.0625 64.515625 
Q 19.53125 74.21875 31.78125 74.21875 
" id="BitstreamVeraSans-Roman-30"/>
       <path d="M 56.203125 29.59375 
L 56.203125 25.203125 
L 14.890625 25.203125 
Q 15.484375 15.921875 20.484375 11.0625 
Q 25.484375 6.203125 34.421875 6.203125 
Q 39.59375 6.203125 44.453125 7.46875 
Q 49.3125 8.734375 54.109375 11.28125 
L 54.109375 2.78125 
Q 49.265625 0.734375 44.1875 -0.34375 
Q 39.109375 -1.421875 33.890625 -1.421875 
Q 20.796875 -1.421875 13.15625 6.1875 
Q 5.515625 13.8125 5.515625 26.8125 
Q 5.515625 40.234375 12.765625 48.109375 
Q 20.015625 56 32.328125 56 
Q 43.359375 56 49.78125 48.890625 
Q 56.203125 41.796875 56.203125 29.59375 
M 47.21875 32.234375 
Q 47.125 39.59375 43.09375 43.984375 
Q 39.0625 48.390625 32.421875 48.390625 
Q 24.90625 48.390625 20.390625 44.140625 
Q 15.875 39.890625 15.1875 32.171875 
z
" id="BitstreamVeraSans-Roman-65"/>
       <path d="M 8.203125 72.90625 
L 55.078125 72.90625 
L 55.078125 68.703125 
L 28.609375 0 
L 18.3125 0 
L 43.21875 64.59375 
L 8.203125 64.59375 
z
" id="BitstreamVeraSans-Roman-37"/>
       <path d="M 12.40625 8.296875 
L 28.515625 8.296875 
L 28.515625 63.921875 
L 10.984375 60.40625 
L 10.984375 69.390625 
L 28.421875 72.90625 
L 38.28125 72.90625 
L 38.28125 8.296875 
L 54.390625 8.296875 
L 54.390625 0 
L 12.40625 0 
z
" id="BitstreamVeraSans-Roman-31"/>
      </defs>
      <g style="fill:#555555;" transform="translate(10.9992187498 259.607783654)rotate(-30.0)scale(0.1 -0.1)">
       <use xlink:href="#BitstreamVeraSans-Roman-46"/>
       <use x="57.44140625" xlink:href="#BitstreamVeraSans-Roman-65"/>
       <use x="118.96484375" xlink:href="#BitstreamVeraSans-Roman-62"/>
       <use x="182.44140625" xlink:href="#BitstreamVeraSans-Roman-20"/>
       <use x="214.228515625" xlink:href="#BitstreamVeraSans-Roman-31"/>
       <use x="277.8515625" xlink:href="#BitstreamVeraSans-Roman-37"/>
       <use x="341.474609375" xlink:href="#BitstreamVeraSans-Roman-20"/>
       <use x="373.26171875" xlink:href="#BitstreamVeraSans-Roman-32"/>
       <use x="436.884765625" xlink:href="#BitstreamVeraSans-Roman-30"/>
       <use x="500.5078125" xlink:href="#BitstreamVeraSans-Roman-31"/>
       <use x="564.130859375" xlink:href="#BitstreamVeraSans-Roman-36"/>
      </g>
     </g>
    </g>
    <g id="xtick_2">
     <g id="line2d_4">
      <path clip-path="url(#p32f64070b7)" d="M 111.911957 213.639062 
L 111.911957 12.039062 
" style="fill:none;stroke:#ffffff;stroke-linecap:square;stroke-width:0.5;"/>
     </g>
     <g id="line2d_5">
      <g>
       <use style="fill:#555555;stroke:#555555;stroke-width:0.5;" x="111.911956504" xlink:href="#m8108e56155" y="213.6390625"/>
      </g>
     </g>
     <g id="line2d_6">
      <g>
       <use style="fill:#555555;stroke:#555555;stroke-width:0.5;" x="111.911956504" xlink:href="#mc74b63bfa2" y="12.0390625"/>
      </g>
     </g>
     <g id="text_2">
      <!-- Mar 02 2016 -->
      <defs>
       <path d="M 41.109375 46.296875 
Q 39.59375 47.171875 37.8125 47.578125 
Q 36.03125 48 33.890625 48 
Q 26.265625 48 22.1875 43.046875 
Q 18.109375 38.09375 18.109375 28.8125 
L 18.109375 0 
L 9.078125 0 
L 9.078125 54.6875 
L 18.109375 54.6875 
L 18.109375 46.1875 
Q 20.953125 51.171875 25.484375 53.578125 
Q 30.03125 56 36.53125 56 
Q 37.453125 56 38.578125 55.875 
Q 39.703125 55.765625 41.0625 55.515625 
z
" id="BitstreamVeraSans-Roman-72"/>
       <path d="M 34.28125 27.484375 
Q 23.390625 27.484375 19.1875 25 
Q 14.984375 22.515625 14.984375 16.5 
Q 14.984375 11.71875 18.140625 8.90625 
Q 21.296875 6.109375 26.703125 6.109375 
Q 34.1875 6.109375 38.703125 11.40625 
Q 43.21875 16.703125 43.21875 25.484375 
L 43.21875 27.484375 
z
M 52.203125 31.203125 
L 52.203125 0 
L 43.21875 0 
L 43.21875 8.296875 
Q 40.140625 3.328125 35.546875 0.953125 
Q 30.953125 -1.421875 24.3125 -1.421875 
Q 15.921875 -1.421875 10.953125 3.296875 
Q 6 8.015625 6 15.921875 
Q 6 25.140625 12.171875 29.828125 
Q 18.359375 34.515625 30.609375 34.515625 
L 43.21875 34.515625 
L 43.21875 35.40625 
Q 43.21875 41.609375 39.140625 45 
Q 35.0625 48.390625 27.6875 48.390625 
Q 23 48.390625 18.546875 47.265625 
Q 14.109375 46.140625 10.015625 43.890625 
L 10.015625 52.203125 
Q 14.9375 54.109375 19.578125 55.046875 
Q 24.21875 56 28.609375 56 
Q 40.484375 56 46.34375 49.84375 
Q 52.203125 43.703125 52.203125 31.203125 
" id="BitstreamVeraSans-Roman-61"/>
       <path d="M 9.8125 72.90625 
L 24.515625 72.90625 
L 43.109375 23.296875 
L 61.8125 72.90625 
L 76.515625 72.90625 
L 76.515625 0 
L 66.890625 0 
L 66.890625 64.015625 
L 48.09375 14.015625 
L 38.1875 14.015625 
L 19.390625 64.015625 
L 19.390625 0 
L 9.8125 0 
z
" id="BitstreamVeraSans-Roman-4d"/>
      </defs>
      <g style="fill:#555555;" transform="translate(55.9674553183 259.918721154)rotate(-30.0)scale(0.1 -0.1)">
       <use xlink:href="#BitstreamVeraSans-Roman-4d"/>
       <use x="86.279296875" xlink:href="#BitstreamVeraSans-Roman-61"/>
       <use x="147.55859375" xlink:href="#BitstreamVeraSans-Roman-72"/>
       <use x="188.671875" xlink:href="#BitstreamVeraSans-Roman-20"/>
       <use x="220.458984375" xlink:href="#BitstreamVeraSans-Roman-30"/>
       <use x="284.08203125" xlink:href="#BitstreamVeraSans-Roman-32"/>
       <use x="347.705078125" xlink:href="#BitstreamVeraSans-Roman-20"/>
       <use x="379.4921875" xlink:href="#BitstreamVeraSans-Roman-32"/>
       <use x="443.115234375" xlink:href="#BitstreamVeraSans-Roman-30"/>
       <use x="506.73828125" xlink:href="#BitstreamVeraSans-Roman-31"/>
       <use x="570.361328125" xlink:href="#BitstreamVeraSans-Roman-36"/>
      </g>
     </g>
    </g>
    <g id="xtick_3">
     <g id="line2d_7">
      <path clip-path="url(#p32f64070b7)" d="M 157.418753 213.639062 
L 157.418753 12.039062 
" style="fill:none;stroke:#ffffff;stroke-linecap:square;stroke-width:0.5;"/>
     </g>
     <g id="line2d_8">
      <g>
       <use style="fill:#555555;stroke:#555555;stroke-width:0.5;" x="157.41875262" xlink:href="#m8108e56155" y="213.6390625"/>
      </g>
     </g>
     <g id="line2d_9">
      <g>
       <use style="fill:#555555;stroke:#555555;stroke-width:0.5;" x="157.41875262" xlink:href="#mc74b63bfa2" y="12.0390625"/>
      </g>
     </g>
     <g id="text_3">
      <!-- Mar 16 2016 -->
      <g style="fill:#555555;" transform="translate(101.474251435 259.918721154)rotate(-30.0)scale(0.1 -0.1)">
       <use xlink:href="#BitstreamVeraSans-Roman-4d"/>
       <use x="86.279296875" xlink:href="#BitstreamVeraSans-Roman-61"/>
       <use x="147.55859375" xlink:href="#BitstreamVeraSans-Roman-72"/>
       <use x="188.671875" xlink:href="#BitstreamVeraSans-Roman-20"/>
       <use x="220.458984375" xlink:href="#BitstreamVeraSans-Roman-31"/>
       <use x="284.08203125" xlink:href="#BitstreamVeraSans-Roman-36"/>
       <use x="347.705078125" xlink:href="#BitstreamVeraSans-Roman-20"/>
       <use x="379.4921875" xlink:href="#BitstreamVeraSans-Roman-32"/>
       <use x="443.115234375" xlink:href="#BitstreamVeraSans-Roman-30"/>
       <use x="506.73828125" xlink:href="#BitstreamVeraSans-Roman-31"/>
       <use x="570.361328125" xlink:href="#BitstreamVeraSans-Roman-36"/>
      </g>
     </g>
    </g>
    <g id="xtick_4">
     <g id="line2d_10">
      <path clip-path="url(#p32f64070b7)" d="M 202.925549 213.639062 
L 202.925549 12.039062 
" style="fill:none;stroke:#ffffff;stroke-linecap:square;stroke-width:0.5;"/>
     </g>
     <g id="line2d_11">
      <g>
       <use style="fill:#555555;stroke:#555555;stroke-width:0.5;" x="202.925548736" xlink:href="#m8108e56155" y="213.6390625"/>
      </g>
     </g>
     <g id="line2d_12">
      <g>
       <use style="fill:#555555;stroke:#555555;stroke-width:0.5;" x="202.925548736" xlink:href="#mc74b63bfa2" y="12.0390625"/>
      </g>
     </g>
     <g id="text_4">
      <!-- Mar 30 2016 -->
      <defs>
       <path d="M 40.578125 39.3125 
Q 47.65625 37.796875 51.625 33 
Q 55.609375 28.21875 55.609375 21.1875 
Q 55.609375 10.40625 48.1875 4.484375 
Q 40.765625 -1.421875 27.09375 -1.421875 
Q 22.515625 -1.421875 17.65625 -0.515625 
Q 12.796875 0.390625 7.625 2.203125 
L 7.625 11.71875 
Q 11.71875 9.328125 16.59375 8.109375 
Q 21.484375 6.890625 26.8125 6.890625 
Q 36.078125 6.890625 40.9375 10.546875 
Q 45.796875 14.203125 45.796875 21.1875 
Q 45.796875 27.640625 41.28125 31.265625 
Q 36.765625 34.90625 28.71875 34.90625 
L 20.21875 34.90625 
L 20.21875 43.015625 
L 29.109375 43.015625 
Q 36.375 43.015625 40.234375 45.921875 
Q 44.09375 48.828125 44.09375 54.296875 
Q 44.09375 59.90625 40.109375 62.90625 
Q 36.140625 65.921875 28.71875 65.921875 
Q 24.65625 65.921875 20.015625 65.03125 
Q 15.375 64.15625 9.8125 62.3125 
L 9.8125 71.09375 
Q 15.4375 72.65625 20.34375 73.4375 
Q 25.25 74.21875 29.59375 74.21875 
Q 40.828125 74.21875 47.359375 69.109375 
Q 53.90625 64.015625 53.90625 55.328125 
Q 53.90625 49.265625 50.4375 45.09375 
Q 46.96875 40.921875 40.578125 39.3125 
" id="BitstreamVeraSans-Roman-33"/>
      </defs>
      <g style="fill:#555555;" transform="translate(146.981047551 259.918721154)rotate(-30.0)scale(0.1 -0.1)">
       <use xlink:href="#BitstreamVeraSans-Roman-4d"/>
       <use x="86.279296875" xlink:href="#BitstreamVeraSans-Roman-61"/>
       <use x="147.55859375" xlink:href="#BitstreamVeraSans-Roman-72"/>
       <use x="188.671875" xlink:href="#BitstreamVeraSans-Roman-20"/>
       <use x="220.458984375" xlink:href="#BitstreamVeraSans-Roman-33"/>
       <use x="284.08203125" xlink:href="#BitstreamVeraSans-Roman-30"/>
       <use x="347.705078125" xlink:href="#BitstreamVeraSans-Roman-20"/>
       <use x="379.4921875" xlink:href="#BitstreamVeraSans-Roman-32"/>
       <use x="443.115234375" xlink:href="#BitstreamVeraSans-Roman-30"/>
       <use x="506.73828125" xlink:href="#BitstreamVeraSans-Roman-31"/>
       <use x="570.361328125" xlink:href="#BitstreamVeraSans-Roman-36"/>
      </g>
     </g>
    </g>
    <g id="xtick_5">
     <g id="line2d_13">
      <path clip-path="url(#p32f64070b7)" d="M 248.432345 213.639062 
L 248.432345 12.039062 
" style="fill:none;stroke:#ffffff;stroke-linecap:square;stroke-width:0.5;"/>
     </g>
     <g id="line2d_14">
      <g>
       <use style="fill:#555555;stroke:#555555;stroke-width:0.5;" x="248.432344853" xlink:href="#m8108e56155" y="213.6390625"/>
      </g>
     </g>
     <g id="line2d_15">
      <g>
       <use style="fill:#555555;stroke:#555555;stroke-width:0.5;" x="248.432344853" xlink:href="#mc74b63bfa2" y="12.0390625"/>
      </g>
     </g>
     <g id="text_5">
      <!-- Apr 13 2016 -->
      <defs>
       <path d="M 18.109375 8.203125 
L 18.109375 -20.796875 
L 9.078125 -20.796875 
L 9.078125 54.6875 
L 18.109375 54.6875 
L 18.109375 46.390625 
Q 20.953125 51.265625 25.265625 53.625 
Q 29.59375 56 35.59375 56 
Q 45.5625 56 51.78125 48.09375 
Q 58.015625 40.1875 58.015625 27.296875 
Q 58.015625 14.40625 51.78125 6.484375 
Q 45.5625 -1.421875 35.59375 -1.421875 
Q 29.59375 -1.421875 25.265625 0.953125 
Q 20.953125 3.328125 18.109375 8.203125 
M 48.6875 27.296875 
Q 48.6875 37.203125 44.609375 42.84375 
Q 40.53125 48.484375 33.40625 48.484375 
Q 26.265625 48.484375 22.1875 42.84375 
Q 18.109375 37.203125 18.109375 27.296875 
Q 18.109375 17.390625 22.1875 11.75 
Q 26.265625 6.109375 33.40625 6.109375 
Q 40.53125 6.109375 44.609375 11.75 
Q 48.6875 17.390625 48.6875 27.296875 
" id="BitstreamVeraSans-Roman-70"/>
       <path d="M 34.1875 63.1875 
L 20.796875 26.90625 
L 47.609375 26.90625 
z
M 28.609375 72.90625 
L 39.796875 72.90625 
L 67.578125 0 
L 57.328125 0 
L 50.6875 18.703125 
L 17.828125 18.703125 
L 11.1875 0 
L 0.78125 0 
z
" id="BitstreamVeraSans-Roman-41"/>
      </defs>
      <g style="fill:#555555;" transform="translate(193.845067855 259.135127404)rotate(-30.0)scale(0.1 -0.1)">
       <use xlink:href="#BitstreamVeraSans-Roman-41"/>
       <use x="68.408203125" xlink:href="#BitstreamVeraSans-Roman-70"/>
       <use x="131.884765625" xlink:href="#BitstreamVeraSans-Roman-72"/>
       <use x="172.998046875" xlink:href="#BitstreamVeraSans-Roman-20"/>
       <use x="204.78515625" xlink:href="#BitstreamVeraSans-Roman-31"/>
       <use x="268.408203125" xlink:href="#BitstreamVeraSans-Roman-33"/>
       <use x="332.03125" xlink:href="#BitstreamVeraSans-Roman-20"/>
       <use x="363.818359375" xlink:href="#BitstreamVeraSans-Roman-32"/>
       <use x="427.44140625" xlink:href="#BitstreamVeraSans-Roman-30"/>
       <use x="491.064453125" xlink:href="#BitstreamVeraSans-Roman-31"/>
       <use x="554.6875" xlink:href="#BitstreamVeraSans-Roman-36"/>
      </g>
     </g>
    </g>
    <g id="xtick_6">
     <g id="line2d_16">
      <path clip-path="url(#p32f64070b7)" d="M 293.939141 213.639062 
L 293.939141 12.039062 
" style="fill:none;stroke:#ffffff;stroke-linecap:square;stroke-width:0.5;"/>
     </g>
     <g id="line2d_17">
      <g>
       <use style="fill:#555555;stroke:#555555;stroke-width:0.5;" x="293.939140969" xlink:href="#m8108e56155" y="213.6390625"/>
      </g>
     </g>
     <g id="line2d_18">
      <g>
       <use style="fill:#555555;stroke:#555555;stroke-width:0.5;" x="293.939140969" xlink:href="#mc74b63bfa2" y="12.0390625"/>
      </g>
     </g>
     <g id="text_6">
      <!-- Apr 27 2016 -->
      <g style="fill:#555555;" transform="translate(239.351863972 259.135127404)rotate(-30.0)scale(0.1 -0.1)">
       <use xlink:href="#BitstreamVeraSans-Roman-41"/>
       <use x="68.408203125" xlink:href="#BitstreamVeraSans-Roman-70"/>
       <use x="131.884765625" xlink:href="#BitstreamVeraSans-Roman-72"/>
       <use x="172.998046875" xlink:href="#BitstreamVeraSans-Roman-20"/>
       <use x="204.78515625" xlink:href="#BitstreamVeraSans-Roman-32"/>
       <use x="268.408203125" xlink:href="#BitstreamVeraSans-Roman-37"/>
       <use x="332.03125" xlink:href="#BitstreamVeraSans-Roman-20"/>
       <use x="363.818359375" xlink:href="#BitstreamVeraSans-Roman-32"/>
       <use x="427.44140625" xlink:href="#BitstreamVeraSans-Roman-30"/>
       <use x="491.064453125" xlink:href="#BitstreamVeraSans-Roman-31"/>
       <use x="554.6875" xlink:href="#BitstreamVeraSans-Roman-36"/>
      </g>
     </g>
    </g>
    <g id="xtick_7">
     <g id="line2d_19">
      <path clip-path="url(#p32f64070b7)" d="M 339.445937 213.639062 
L 339.445937 12.039062 
" style="fill:none;stroke:#ffffff;stroke-linecap:square;stroke-width:0.5;"/>
     </g>
     <g id="line2d_20">
      <g>
       <use style="fill:#555555;stroke:#555555;stroke-width:0.5;" x="339.445937086" xlink:href="#m8108e56155" y="213.6390625"/>
      </g>
     </g>
     <g id="line2d_21">
      <g>
       <use style="fill:#555555;stroke:#555555;stroke-width:0.5;" x="339.445937086" xlink:href="#mc74b63bfa2" y="12.0390625"/>
      </g>
     </g>
     <g id="text_7">
      <!-- May 11 2016 -->
      <defs>
       <path d="M 32.171875 -5.078125 
Q 28.375 -14.84375 24.75 -17.8125 
Q 21.140625 -20.796875 15.09375 -20.796875 
L 7.90625 -20.796875 
L 7.90625 -13.28125 
L 13.1875 -13.28125 
Q 16.890625 -13.28125 18.9375 -11.515625 
Q 21 -9.765625 23.484375 -3.21875 
L 25.09375 0.875 
L 2.984375 54.6875 
L 12.5 54.6875 
L 29.59375 11.921875 
L 46.6875 54.6875 
L 56.203125 54.6875 
z
" id="BitstreamVeraSans-Roman-79"/>
      </defs>
      <g style="fill:#555555;" transform="translate(281.93582435 260.822627404)rotate(-30.0)scale(0.1 -0.1)">
       <use xlink:href="#BitstreamVeraSans-Roman-4d"/>
       <use x="86.279296875" xlink:href="#BitstreamVeraSans-Roman-61"/>
       <use x="147.55859375" xlink:href="#BitstreamVeraSans-Roman-79"/>
       <use x="206.73828125" xlink:href="#BitstreamVeraSans-Roman-20"/>
       <use x="238.525390625" xlink:href="#BitstreamVeraSans-Roman-31"/>
       <use x="302.1484375" xlink:href="#BitstreamVeraSans-Roman-31"/>
       <use x="365.771484375" xlink:href="#BitstreamVeraSans-Roman-20"/>
       <use x="397.55859375" xlink:href="#BitstreamVeraSans-Roman-32"/>
       <use x="461.181640625" xlink:href="#BitstreamVeraSans-Roman-30"/>
       <use x="524.8046875" xlink:href="#BitstreamVeraSans-Roman-31"/>
       <use x="588.427734375" xlink:href="#BitstreamVeraSans-Roman-36"/>
      </g>
     </g>
    </g>
    <g id="text_8">
     <!-- date -->
     <defs>
      <path d="M 18.3125 70.21875 
L 18.3125 54.6875 
L 36.8125 54.6875 
L 36.8125 47.703125 
L 18.3125 47.703125 
L 18.3125 18.015625 
Q 18.3125 11.328125 20.140625 9.421875 
Q 21.96875 7.515625 27.59375 7.515625 
L 36.8125 7.515625 
L 36.8125 0 
L 27.59375 0 
Q 17.1875 0 13.234375 3.875 
Q 9.28125 7.765625 9.28125 18.015625 
L 9.28125 47.703125 
L 2.6875 47.703125 
L 2.6875 54.6875 
L 9.28125 54.6875 
L 9.28125 70.21875 
z
" id="BitstreamVeraSans-Roman-74"/>
      <path d="M 45.40625 46.390625 
L 45.40625 75.984375 
L 54.390625 75.984375 
L 54.390625 0 
L 45.40625 0 
L 45.40625 8.203125 
Q 42.578125 3.328125 38.25 0.953125 
Q 33.9375 -1.421875 27.875 -1.421875 
Q 17.96875 -1.421875 11.734375 6.484375 
Q 5.515625 14.40625 5.515625 27.296875 
Q 5.515625 40.1875 11.734375 48.09375 
Q 17.96875 56 27.875 56 
Q 33.9375 56 38.25 53.625 
Q 42.578125 51.265625 45.40625 46.390625 
M 14.796875 27.296875 
Q 14.796875 17.390625 18.875 11.75 
Q 22.953125 6.109375 30.078125 6.109375 
Q 37.203125 6.109375 41.296875 11.75 
Q 45.40625 17.390625 45.40625 27.296875 
Q 45.40625 37.203125 41.296875 42.84375 
Q 37.203125 48.484375 30.078125 48.484375 
Q 22.953125 48.484375 18.875 42.84375 
Q 14.796875 37.203125 14.796875 27.296875 
" id="BitstreamVeraSans-Roman-64"/>
     </defs>
     <g style="fill:#555555;" transform="translate(197.521762329 276.741814611)scale(0.12 -0.12)">
      <use xlink:href="#BitstreamVeraSans-Roman-64"/>
      <use x="63.4765625" xlink:href="#BitstreamVeraSans-Roman-61"/>
      <use x="124.755859375" xlink:href="#BitstreamVeraSans-Roman-74"/>
      <use x="163.96484375" xlink:href="#BitstreamVeraSans-Roman-65"/>
     </g>
    </g>
   </g>
   <g id="matplotlib.axis_2">
    <g id="ytick_1">
     <g id="line2d_22">
      <path clip-path="url(#p32f64070b7)" d="M 43.651762 213.639062 
L 378.451762 213.639062 
" style="fill:none;stroke:#ffffff;stroke-linecap:square;stroke-width:0.5;"/>
     </g>
     <g id="line2d_23">
      <defs>
       <path d="M 0 0 
L -4 0 
" id="m049df37208" style="stroke:#555555;stroke-width:0.5;"/>
      </defs>
      <g>
       <use style="fill:#555555;stroke:#555555;stroke-width:0.5;" x="43.6517623293" xlink:href="#m049df37208" y="213.6390625"/>
      </g>
     </g>
     <g id="line2d_24">
      <defs>
       <path d="M 0 0 
L 4 0 
" id="m61e5d68231" style="stroke:#555555;stroke-width:0.5;"/>
      </defs>
      <g>
       <use style="fill:#555555;stroke:#555555;stroke-width:0.5;" x="378.451762329" xlink:href="#m61e5d68231" y="213.6390625"/>
      </g>
     </g>
     <g id="text_9">
      <!-- 0.0 -->
      <defs>
       <path d="M 10.6875 12.40625 
L 21 12.40625 
L 21 0 
L 10.6875 0 
z
" id="BitstreamVeraSans-Roman-2e"/>
      </defs>
      <g style="fill:#555555;" transform="translate(19.7486373293 216.3984375)scale(0.1 -0.1)">
       <use xlink:href="#BitstreamVeraSans-Roman-30"/>
       <use x="63.623046875" xlink:href="#BitstreamVeraSans-Roman-2e"/>
       <use x="95.41015625" xlink:href="#BitstreamVeraSans-Roman-30"/>
      </g>
     </g>
    </g>
    <g id="ytick_2">
     <g id="line2d_25">
      <path clip-path="url(#p32f64070b7)" d="M 43.651762 188.439062 
L 378.451762 188.439062 
" style="fill:none;stroke:#ffffff;stroke-linecap:square;stroke-width:0.5;"/>
     </g>
     <g id="line2d_26">
      <g>
       <use style="fill:#555555;stroke:#555555;stroke-width:0.5;" x="43.6517623293" xlink:href="#m049df37208" y="188.4390625"/>
      </g>
     </g>
     <g id="line2d_27">
      <g>
       <use style="fill:#555555;stroke:#555555;stroke-width:0.5;" x="378.451762329" xlink:href="#m61e5d68231" y="188.4390625"/>
      </g>
     </g>
     <g id="text_10">
      <!-- 0.1 -->
      <g style="fill:#555555;" transform="translate(19.7486373293 191.1984375)scale(0.1 -0.1)">
       <use xlink:href="#BitstreamVeraSans-Roman-30"/>
       <use x="63.623046875" xlink:href="#BitstreamVeraSans-Roman-2e"/>
       <use x="95.41015625" xlink:href="#BitstreamVeraSans-Roman-31"/>
      </g>
     </g>
    </g>
    <g id="ytick_3">
     <g id="line2d_28">
      <path clip-path="url(#p32f64070b7)" d="M 43.651762 163.239062 
L 378.451762 163.239062 
" style="fill:none;stroke:#ffffff;stroke-linecap:square;stroke-width:0.5;"/>
     </g>
     <g id="line2d_29">
      <g>
       <use style="fill:#555555;stroke:#555555;stroke-width:0.5;" x="43.6517623293" xlink:href="#m049df37208" y="163.2390625"/>
      </g>
     </g>
     <g id="line2d_30">
      <g>
       <use style="fill:#555555;stroke:#555555;stroke-width:0.5;" x="378.451762329" xlink:href="#m61e5d68231" y="163.2390625"/>
      </g>
     </g>
     <g id="text_11">
      <!-- 0.2 -->
      <g style="fill:#555555;" transform="translate(19.7486373293 165.9984375)scale(0.1 -0.1)">
       <use xlink:href="#BitstreamVeraSans-Roman-30"/>
       <use x="63.623046875" xlink:href="#BitstreamVeraSans-Roman-2e"/>
       <use x="95.41015625" xlink:href="#BitstreamVeraSans-Roman-32"/>
      </g>
     </g>
    </g>
    <g id="ytick_4">
     <g id="line2d_31">
      <path clip-path="url(#p32f64070b7)" d="M 43.651762 138.039062 
L 378.451762 138.039062 
" style="fill:none;stroke:#ffffff;stroke-linecap:square;stroke-width:0.5;"/>
     </g>
     <g id="line2d_32">
      <g>
       <use style="fill:#555555;stroke:#555555;stroke-width:0.5;" x="43.6517623293" xlink:href="#m049df37208" y="138.0390625"/>
      </g>
     </g>
     <g id="line2d_33">
      <g>
       <use style="fill:#555555;stroke:#555555;stroke-width:0.5;" x="378.451762329" xlink:href="#m61e5d68231" y="138.0390625"/>
      </g>
     </g>
     <g id="text_12">
      <!-- 0.3 -->
      <g style="fill:#555555;" transform="translate(19.7486373293 140.7984375)scale(0.1 -0.1)">
       <use xlink:href="#BitstreamVeraSans-Roman-30"/>
       <use x="63.623046875" xlink:href="#BitstreamVeraSans-Roman-2e"/>
       <use x="95.41015625" xlink:href="#BitstreamVeraSans-Roman-33"/>
      </g>
     </g>
    </g>
    <g id="ytick_5">
     <g id="line2d_34">
      <path clip-path="url(#p32f64070b7)" d="M 43.651762 112.839062 
L 378.451762 112.839062 
" style="fill:none;stroke:#ffffff;stroke-linecap:square;stroke-width:0.5;"/>
     </g>
     <g id="line2d_35">
      <g>
       <use style="fill:#555555;stroke:#555555;stroke-width:0.5;" x="43.6517623293" xlink:href="#m049df37208" y="112.8390625"/>
      </g>
     </g>
     <g id="line2d_36">
      <g>
       <use style="fill:#555555;stroke:#555555;stroke-width:0.5;" x="378.451762329" xlink:href="#m61e5d68231" y="112.8390625"/>
      </g>
     </g>
     <g id="text_13">
      <!-- 0.4 -->
      <defs>
       <path d="M 37.796875 64.3125 
L 12.890625 25.390625 
L 37.796875 25.390625 
z
M 35.203125 72.90625 
L 47.609375 72.90625 
L 47.609375 25.390625 
L 58.015625 25.390625 
L 58.015625 17.1875 
L 47.609375 17.1875 
L 47.609375 0 
L 37.796875 0 
L 37.796875 17.1875 
L 4.890625 17.1875 
L 4.890625 26.703125 
z
" id="BitstreamVeraSans-Roman-34"/>
      </defs>
      <g style="fill:#555555;" transform="translate(19.7486373293 115.5984375)scale(0.1 -0.1)">
       <use xlink:href="#BitstreamVeraSans-Roman-30"/>
       <use x="63.623046875" xlink:href="#BitstreamVeraSans-Roman-2e"/>
       <use x="95.41015625" xlink:href="#BitstreamVeraSans-Roman-34"/>
      </g>
     </g>
    </g>
    <g id="ytick_6">
     <g id="line2d_37">
      <path clip-path="url(#p32f64070b7)" d="M 43.651762 87.639062 
L 378.451762 87.639062 
" style="fill:none;stroke:#ffffff;stroke-linecap:square;stroke-width:0.5;"/>
     </g>
     <g id="line2d_38">
      <g>
       <use style="fill:#555555;stroke:#555555;stroke-width:0.5;" x="43.6517623293" xlink:href="#m049df37208" y="87.6390625"/>
      </g>
     </g>
     <g id="line2d_39">
      <g>
       <use style="fill:#555555;stroke:#555555;stroke-width:0.5;" x="378.451762329" xlink:href="#m61e5d68231" y="87.6390625"/>
      </g>
     </g>
     <g id="text_14">
      <!-- 0.5 -->
      <defs>
       <path d="M 10.796875 72.90625 
L 49.515625 72.90625 
L 49.515625 64.59375 
L 19.828125 64.59375 
L 19.828125 46.734375 
Q 21.96875 47.46875 24.109375 47.828125 
Q 26.265625 48.1875 28.421875 48.1875 
Q 40.625 48.1875 47.75 41.5 
Q 54.890625 34.8125 54.890625 23.390625 
Q 54.890625 11.625 47.5625 5.09375 
Q 40.234375 -1.421875 26.90625 -1.421875 
Q 22.3125 -1.421875 17.546875 -0.640625 
Q 12.796875 0.140625 7.71875 1.703125 
L 7.71875 11.625 
Q 12.109375 9.234375 16.796875 8.0625 
Q 21.484375 6.890625 26.703125 6.890625 
Q 35.15625 6.890625 40.078125 11.328125 
Q 45.015625 15.765625 45.015625 23.390625 
Q 45.015625 31 40.078125 35.4375 
Q 35.15625 39.890625 26.703125 39.890625 
Q 22.75 39.890625 18.8125 39.015625 
Q 14.890625 38.140625 10.796875 36.28125 
z
" id="BitstreamVeraSans-Roman-35"/>
      </defs>
      <g style="fill:#555555;" transform="translate(19.7486373293 90.3984375)scale(0.1 -0.1)">
       <use xlink:href="#BitstreamVeraSans-Roman-30"/>
       <use x="63.623046875" xlink:href="#BitstreamVeraSans-Roman-2e"/>
       <use x="95.41015625" xlink:href="#BitstreamVeraSans-Roman-35"/>
      </g>
     </g>
    </g>
    <g id="ytick_7">
     <g id="line2d_40">
      <path clip-path="url(#p32f64070b7)" d="M 43.651762 62.439062 
L 378.451762 62.439062 
" style="fill:none;stroke:#ffffff;stroke-linecap:square;stroke-width:0.5;"/>
     </g>
     <g id="line2d_41">
      <g>
       <use style="fill:#555555;stroke:#555555;stroke-width:0.5;" x="43.6517623293" xlink:href="#m049df37208" y="62.4390625"/>
      </g>
     </g>
     <g id="line2d_42">
      <g>
       <use style="fill:#555555;stroke:#555555;stroke-width:0.5;" x="378.451762329" xlink:href="#m61e5d68231" y="62.4390625"/>
      </g>
     </g>
     <g id="text_15">
      <!-- 0.6 -->
      <g style="fill:#555555;" transform="translate(19.7486373293 65.1984375)scale(0.1 -0.1)">
       <use xlink:href="#BitstreamVeraSans-Roman-30"/>
       <use x="63.623046875" xlink:href="#BitstreamVeraSans-Roman-2e"/>
       <use x="95.41015625" xlink:href="#BitstreamVeraSans-Roman-36"/>
      </g>
     </g>
    </g>
    <g id="ytick_8">
     <g id="line2d_43">
      <path clip-path="url(#p32f64070b7)" d="M 43.651762 37.239062 
L 378.451762 37.239062 
" style="fill:none;stroke:#ffffff;stroke-linecap:square;stroke-width:0.5;"/>
     </g>
     <g id="line2d_44">
      <g>
       <use style="fill:#555555;stroke:#555555;stroke-width:0.5;" x="43.6517623293" xlink:href="#m049df37208" y="37.2390625"/>
      </g>
     </g>
     <g id="line2d_45">
      <g>
       <use style="fill:#555555;stroke:#555555;stroke-width:0.5;" x="378.451762329" xlink:href="#m61e5d68231" y="37.2390625"/>
      </g>
     </g>
     <g id="text_16">
      <!-- 0.7 -->
      <g style="fill:#555555;" transform="translate(19.7486373293 39.9984375)scale(0.1 -0.1)">
       <use xlink:href="#BitstreamVeraSans-Roman-30"/>
       <use x="63.623046875" xlink:href="#BitstreamVeraSans-Roman-2e"/>
       <use x="95.41015625" xlink:href="#BitstreamVeraSans-Roman-37"/>
      </g>
     </g>
    </g>
    <g id="ytick_9">
     <g id="line2d_46">
      <path clip-path="url(#p32f64070b7)" d="M 43.651762 12.039062 
L 378.451762 12.039062 
" style="fill:none;stroke:#ffffff;stroke-linecap:square;stroke-width:0.5;"/>
     </g>
     <g id="line2d_47">
      <g>
       <use style="fill:#555555;stroke:#555555;stroke-width:0.5;" x="43.6517623293" xlink:href="#m049df37208" y="12.0390625"/>
      </g>
     </g>
     <g id="line2d_48">
      <g>
       <use style="fill:#555555;stroke:#555555;stroke-width:0.5;" x="378.451762329" xlink:href="#m61e5d68231" y="12.0390625"/>
      </g>
     </g>
     <g id="text_17">
      <!-- 0.8 -->
      <defs>
       <path d="M 31.78125 34.625 
Q 24.75 34.625 20.71875 30.859375 
Q 16.703125 27.09375 16.703125 20.515625 
Q 16.703125 13.921875 20.71875 10.15625 
Q 24.75 6.390625 31.78125 6.390625 
Q 38.8125 6.390625 42.859375 10.171875 
Q 46.921875 13.96875 46.921875 20.515625 
Q 46.921875 27.09375 42.890625 30.859375 
Q 38.875 34.625 31.78125 34.625 
M 21.921875 38.8125 
Q 15.578125 40.375 12.03125 44.71875 
Q 8.5 49.078125 8.5 55.328125 
Q 8.5 64.0625 14.71875 69.140625 
Q 20.953125 74.21875 31.78125 74.21875 
Q 42.671875 74.21875 48.875 69.140625 
Q 55.078125 64.0625 55.078125 55.328125 
Q 55.078125 49.078125 51.53125 44.71875 
Q 48 40.375 41.703125 38.8125 
Q 48.828125 37.15625 52.796875 32.3125 
Q 56.78125 27.484375 56.78125 20.515625 
Q 56.78125 9.90625 50.3125 4.234375 
Q 43.84375 -1.421875 31.78125 -1.421875 
Q 19.734375 -1.421875 13.25 4.234375 
Q 6.78125 9.90625 6.78125 20.515625 
Q 6.78125 27.484375 10.78125 32.3125 
Q 14.796875 37.15625 21.921875 38.8125 
M 18.3125 54.390625 
Q 18.3125 48.734375 21.84375 45.5625 
Q 25.390625 42.390625 31.78125 42.390625 
Q 38.140625 42.390625 41.71875 45.5625 
Q 45.3125 48.734375 45.3125 54.390625 
Q 45.3125 60.0625 41.71875 63.234375 
Q 38.140625 66.40625 31.78125 66.40625 
Q 25.390625 66.40625 21.84375 63.234375 
Q 18.3125 60.0625 18.3125 54.390625 
" id="BitstreamVeraSans-Roman-38"/>
      </defs>
      <g style="fill:#555555;" transform="translate(19.7486373293 14.7984375)scale(0.1 -0.1)">
       <use xlink:href="#BitstreamVeraSans-Roman-30"/>
       <use x="63.623046875" xlink:href="#BitstreamVeraSans-Roman-2e"/>
       <use x="95.41015625" xlink:href="#BitstreamVeraSans-Roman-38"/>
      </g>
     </g>
    </g>
   </g>
   <g id="line2d_49">
    <path clip-path="url(#p32f64070b7)" d="M 82.657588 37.443941 
L 85.908073 66.639062 
M 92.409044 89.465149 
L 95.659529 61.112747 
L 105.410986 101.824493 
L 108.661471 136.639062 
L 111.911957 69.639062 
L 115.162442 99.093608 
L 118.412927 64.455062 
L 128.164384 82.021228 
L 131.414869 35.189302 
L 134.665355 120.905118 
L 137.91584 72.366335 
L 141.166325 107.075233 
M 154.168267 65.356104 
L 157.418753 102.114929 
L 160.669238 76.380801 
L 163.919723 64.279512 
L 173.67118 111.393161 
L 176.921665 97.162808 
L 180.172151 148.014062 
L 183.422636 137.920753 
L 186.673122 132.308434 
L 196.424578 193.108711 
L 199.675063 125.549395 
L 202.925549 179.227739 
L 206.176034 204.245746 
L 209.42652 166.08826 
L 219.177976 173.93265 
L 222.428461 189.367957 
M 228.929432 211.542557 
L 232.179918 196.609711 
L 241.931374 212.234045 
L 245.181859 201.336265 
L 248.432345 206.081319 
L 251.68283 211.939231 
L 254.933316 198.838444 
L 264.684772 203.813792 
L 267.935257 205.115077 
L 271.185743 212.390301 
L 274.436228 176.758508 
L 277.686714 212.360596 
L 287.43817 212.020219 
L 290.688656 211.355937 
L 293.939141 213.236507 
L 297.189626 212.500998 
M 313.442054 211.903525 
M 336.195452 173.972396 
M 355.698364 150.639062 
" style="fill:none;stroke:#e24a33;stroke-linecap:square;"/>
   </g>
   <g id="patch_3">
    <path d="M 378.451762 213.639062 
L 378.451762 12.039062 
" style="fill:none;stroke:#ffffff;stroke-linecap:square;stroke-linejoin:miter;"/>
   </g>
   <g id="patch_4">
    <path d="M 43.651762 213.639062 
L 43.651762 12.039062 
" style="fill:none;stroke:#ffffff;stroke-linecap:square;stroke-linejoin:miter;"/>
   </g>
   <g id="patch_5">
    <path d="M 43.651762 213.639062 
L 378.451762 213.639062 
" style="fill:none;stroke:#ffffff;stroke-linecap:square;stroke-linejoin:miter;"/>
   </g>
   <g id="patch_6">
    <path d="M 43.651762 12.039062 
L 378.451762 12.039062 
" style="fill:none;stroke:#ffffff;stroke-linecap:square;stroke-linejoin:miter;"/>
   </g>
  </g>
 </g>
 <defs>
  <clipPath id="p32f64070b7">
   <rect height="201.6" width="334.8" x="43.6517623293" y="12.0390625"/>
  </clipPath>
 </defs>
</svg>
