<?xml version="1.0" encoding="utf-8" standalone="no"?>
<!DOCTYPE svg PUBLIC "-//W3C//DTD SVG 1.1//EN"
  "http://www.w3.org/Graphics/SVG/1.1/DTD/svg11.dtd">
<!-- Created with matplotlib (http://matplotlib.org/) -->
<svg height="260pt" version="1.1" viewBox="0 0 376 260" width="376pt" xmlns="http://www.w3.org/2000/svg" xmlns:xlink="http://www.w3.org/1999/xlink">
 <defs>
  <style type="text/css">
*{stroke-linecap:butt;stroke-linejoin:round;stroke-miterlimit:100000;}
  </style>
 </defs>
 <g id="figure_1">
  <g id="patch_1">
   <path d="M 0 260.117188 
L 376.2875 260.117188 
L 376.2875 0 
L 0 0 
z
" style="fill:#ffffff;"/>
  </g>
  <g id="axes_1">
   <g id="patch_2">
    <path d="M 27.925 235.239062 
L 362.725 235.239062 
L 362.725 12.039062 
L 27.925 12.039062 
z
" style="fill:#e5e5e5;"/>
   </g>
   <g id="matplotlib.axis_1">
    <g id="xtick_1">
     <g id="line2d_1">
      <path clip-path="url(#pb83f82b53c)" d="M 27.925 235.239062 
L 27.925 12.039062 
" style="fill:none;stroke:#ffffff;stroke-linecap:square;stroke-width:0.5;"/>
     </g>
     <g id="line2d_2">
      <defs>
       <path d="M 0 0 
L 0 4 
" id="m60d20427de" style="stroke:#555555;stroke-width:0.5;"/>
      </defs>
      <g>
       <use style="fill:#555555;stroke:#555555;stroke-width:0.5;" x="27.925" xlink:href="#m60d20427de" y="235.2390625"/>
      </g>
     </g>
     <g id="line2d_3">
      <defs>
       <path d="M 0 0 
L 0 -4 
" id="m87f7226b6a" style="stroke:#555555;stroke-width:0.5;"/>
      </defs>
      <g>
       <use style="fill:#555555;stroke:#555555;stroke-width:0.5;" x="27.925" xlink:href="#m87f7226b6a" y="12.0390625"/>
      </g>
     </g>
     <g id="text_1">
      <!-- 0 -->
      <defs>
       <path d="M 31.78125 66.40625 
Q 24.171875 66.40625 20.328125 58.90625 
Q 16.5 51.421875 16.5 36.375 
Q 16.5 21.390625 20.328125 13.890625 
Q 24.171875 6.390625 31.78125 6.390625 
Q 39.453125 6.390625 43.28125 13.890625 
Q 47.125 21.390625 47.125 36.375 
Q 47.125 51.421875 43.28125 58.90625 
Q 39.453125 66.40625 31.78125 66.40625 
M 31.78125 74.21875 
Q 44.046875 74.21875 50.515625 64.515625 
Q 56.984375 54.828125 56.984375 36.375 
Q 56.984375 17.96875 50.515625 8.265625 
Q 44.046875 -1.421875 31.78125 -1.421875 
Q 19.53125 -1.421875 13.0625 8.265625 
Q 6.59375 17.96875 6.59375 36.375 
Q 6.59375 54.828125 13.0625 64.515625 
Q 19.53125 74.21875 31.78125 74.21875 
" id="BitstreamVeraSans-Roman-30"/>
      </defs>
      <g style="fill:#555555;" transform="translate(24.74375 250.8375)scale(0.1 -0.1)">
       <use xlink:href="#BitstreamVeraSans-Roman-30"/>
      </g>
     </g>
    </g>
    <g id="xtick_2">
     <g id="line2d_4">
      <path clip-path="url(#pb83f82b53c)" d="M 83.725 235.239062 
L 83.725 12.039062 
" style="fill:none;stroke:#ffffff;stroke-linecap:square;stroke-width:0.5;"/>
     </g>
     <g id="line2d_5">
      <g>
       <use style="fill:#555555;stroke:#555555;stroke-width:0.5;" x="83.725" xlink:href="#m60d20427de" y="235.2390625"/>
      </g>
     </g>
     <g id="line2d_6">
      <g>
       <use style="fill:#555555;stroke:#555555;stroke-width:0.5;" x="83.725" xlink:href="#m87f7226b6a" y="12.0390625"/>
      </g>
     </g>
     <g id="text_2">
      <!-- 2 -->
      <defs>
       <path d="M 19.1875 8.296875 
L 53.609375 8.296875 
L 53.609375 0 
L 7.328125 0 
L 7.328125 8.296875 
Q 12.9375 14.109375 22.625 23.890625 
Q 32.328125 33.6875 34.8125 36.53125 
Q 39.546875 41.84375 41.421875 45.53125 
Q 43.3125 49.21875 43.3125 52.78125 
Q 43.3125 58.59375 39.234375 62.25 
Q 35.15625 65.921875 28.609375 65.921875 
Q 23.96875 65.921875 18.8125 64.3125 
Q 13.671875 62.703125 7.8125 59.421875 
L 7.8125 69.390625 
Q 13.765625 71.78125 18.9375 73 
Q 24.125 74.21875 28.421875 74.21875 
Q 39.75 74.21875 46.484375 68.546875 
Q 53.21875 62.890625 53.21875 53.421875 
Q 53.21875 48.921875 51.53125 44.890625 
Q 49.859375 40.875 45.40625 35.40625 
Q 44.1875 33.984375 37.640625 27.21875 
Q 31.109375 20.453125 19.1875 8.296875 
" id="BitstreamVeraSans-Roman-32"/>
      </defs>
      <g style="fill:#555555;" transform="translate(80.54375 250.8375)scale(0.1 -0.1)">
       <use xlink:href="#BitstreamVeraSans-Roman-32"/>
      </g>
     </g>
    </g>
    <g id="xtick_3">
     <g id="line2d_7">
      <path clip-path="url(#pb83f82b53c)" d="M 139.525 235.239062 
L 139.525 12.039062 
" style="fill:none;stroke:#ffffff;stroke-linecap:square;stroke-width:0.5;"/>
     </g>
     <g id="line2d_8">
      <g>
       <use style="fill:#555555;stroke:#555555;stroke-width:0.5;" x="139.525" xlink:href="#m60d20427de" y="235.2390625"/>
      </g>
     </g>
     <g id="line2d_9">
      <g>
       <use style="fill:#555555;stroke:#555555;stroke-width:0.5;" x="139.525" xlink:href="#m87f7226b6a" y="12.0390625"/>
      </g>
     </g>
     <g id="text_3">
      <!-- 4 -->
      <defs>
       <path d="M 37.796875 64.3125 
L 12.890625 25.390625 
L 37.796875 25.390625 
z
M 35.203125 72.90625 
L 47.609375 72.90625 
L 47.609375 25.390625 
L 58.015625 25.390625 
L 58.015625 17.1875 
L 47.609375 17.1875 
L 47.609375 0 
L 37.796875 0 
L 37.796875 17.1875 
L 4.890625 17.1875 
L 4.890625 26.703125 
z
" id="BitstreamVeraSans-Roman-34"/>
      </defs>
      <g style="fill:#555555;" transform="translate(136.34375 250.8375)scale(0.1 -0.1)">
       <use xlink:href="#BitstreamVeraSans-Roman-34"/>
      </g>
     </g>
    </g>
    <g id="xtick_4">
     <g id="line2d_10">
      <path clip-path="url(#pb83f82b53c)" d="M 195.325 235.239062 
L 195.325 12.039062 
" style="fill:none;stroke:#ffffff;stroke-linecap:square;stroke-width:0.5;"/>
     </g>
     <g id="line2d_11">
      <g>
       <use style="fill:#555555;stroke:#555555;stroke-width:0.5;" x="195.325" xlink:href="#m60d20427de" y="235.2390625"/>
      </g>
     </g>
     <g id="line2d_12">
      <g>
       <use style="fill:#555555;stroke:#555555;stroke-width:0.5;" x="195.325" xlink:href="#m87f7226b6a" y="12.0390625"/>
      </g>
     </g>
     <g id="text_4">
      <!-- 6 -->
      <defs>
       <path d="M 33.015625 40.375 
Q 26.375 40.375 22.484375 35.828125 
Q 18.609375 31.296875 18.609375 23.390625 
Q 18.609375 15.53125 22.484375 10.953125 
Q 26.375 6.390625 33.015625 6.390625 
Q 39.65625 6.390625 43.53125 10.953125 
Q 47.40625 15.53125 47.40625 23.390625 
Q 47.40625 31.296875 43.53125 35.828125 
Q 39.65625 40.375 33.015625 40.375 
M 52.59375 71.296875 
L 52.59375 62.3125 
Q 48.875 64.0625 45.09375 64.984375 
Q 41.3125 65.921875 37.59375 65.921875 
Q 27.828125 65.921875 22.671875 59.328125 
Q 17.53125 52.734375 16.796875 39.40625 
Q 19.671875 43.65625 24.015625 45.921875 
Q 28.375 48.1875 33.59375 48.1875 
Q 44.578125 48.1875 50.953125 41.515625 
Q 57.328125 34.859375 57.328125 23.390625 
Q 57.328125 12.15625 50.6875 5.359375 
Q 44.046875 -1.421875 33.015625 -1.421875 
Q 20.359375 -1.421875 13.671875 8.265625 
Q 6.984375 17.96875 6.984375 36.375 
Q 6.984375 53.65625 15.1875 63.9375 
Q 23.390625 74.21875 37.203125 74.21875 
Q 40.921875 74.21875 44.703125 73.484375 
Q 48.484375 72.75 52.59375 71.296875 
" id="BitstreamVeraSans-Roman-36"/>
      </defs>
      <g style="fill:#555555;" transform="translate(192.14375 250.8375)scale(0.1 -0.1)">
       <use xlink:href="#BitstreamVeraSans-Roman-36"/>
      </g>
     </g>
    </g>
    <g id="xtick_5">
     <g id="line2d_13">
      <path clip-path="url(#pb83f82b53c)" d="M 251.125 235.239062 
L 251.125 12.039062 
" style="fill:none;stroke:#ffffff;stroke-linecap:square;stroke-width:0.5;"/>
     </g>
     <g id="line2d_14">
      <g>
       <use style="fill:#555555;stroke:#555555;stroke-width:0.5;" x="251.125" xlink:href="#m60d20427de" y="235.2390625"/>
      </g>
     </g>
     <g id="line2d_15">
      <g>
       <use style="fill:#555555;stroke:#555555;stroke-width:0.5;" x="251.125" xlink:href="#m87f7226b6a" y="12.0390625"/>
      </g>
     </g>
     <g id="text_5">
      <!-- 8 -->
      <defs>
       <path d="M 31.78125 34.625 
Q 24.75 34.625 20.71875 30.859375 
Q 16.703125 27.09375 16.703125 20.515625 
Q 16.703125 13.921875 20.71875 10.15625 
Q 24.75 6.390625 31.78125 6.390625 
Q 38.8125 6.390625 42.859375 10.171875 
Q 46.921875 13.96875 46.921875 20.515625 
Q 46.921875 27.09375 42.890625 30.859375 
Q 38.875 34.625 31.78125 34.625 
M 21.921875 38.8125 
Q 15.578125 40.375 12.03125 44.71875 
Q 8.5 49.078125 8.5 55.328125 
Q 8.5 64.0625 14.71875 69.140625 
Q 20.953125 74.21875 31.78125 74.21875 
Q 42.671875 74.21875 48.875 69.140625 
Q 55.078125 64.0625 55.078125 55.328125 
Q 55.078125 49.078125 51.53125 44.71875 
Q 48 40.375 41.703125 38.8125 
Q 48.828125 37.15625 52.796875 32.3125 
Q 56.78125 27.484375 56.78125 20.515625 
Q 56.78125 9.90625 50.3125 4.234375 
Q 43.84375 -1.421875 31.78125 -1.421875 
Q 19.734375 -1.421875 13.25 4.234375 
Q 6.78125 9.90625 6.78125 20.515625 
Q 6.78125 27.484375 10.78125 32.3125 
Q 14.796875 37.15625 21.921875 38.8125 
M 18.3125 54.390625 
Q 18.3125 48.734375 21.84375 45.5625 
Q 25.390625 42.390625 31.78125 42.390625 
Q 38.140625 42.390625 41.71875 45.5625 
Q 45.3125 48.734375 45.3125 54.390625 
Q 45.3125 60.0625 41.71875 63.234375 
Q 38.140625 66.40625 31.78125 66.40625 
Q 25.390625 66.40625 21.84375 63.234375 
Q 18.3125 60.0625 18.3125 54.390625 
" id="BitstreamVeraSans-Roman-38"/>
      </defs>
      <g style="fill:#555555;" transform="translate(247.94375 250.8375)scale(0.1 -0.1)">
       <use xlink:href="#BitstreamVeraSans-Roman-38"/>
      </g>
     </g>
    </g>
    <g id="xtick_6">
     <g id="line2d_16">
      <path clip-path="url(#pb83f82b53c)" d="M 306.925 235.239062 
L 306.925 12.039062 
" style="fill:none;stroke:#ffffff;stroke-linecap:square;stroke-width:0.5;"/>
     </g>
     <g id="line2d_17">
      <g>
       <use style="fill:#555555;stroke:#555555;stroke-width:0.5;" x="306.925" xlink:href="#m60d20427de" y="235.2390625"/>
      </g>
     </g>
     <g id="line2d_18">
      <g>
       <use style="fill:#555555;stroke:#555555;stroke-width:0.5;" x="306.925" xlink:href="#m87f7226b6a" y="12.0390625"/>
      </g>
     </g>
     <g id="text_6">
      <!-- 10 -->
      <defs>
       <path d="M 12.40625 8.296875 
L 28.515625 8.296875 
L 28.515625 63.921875 
L 10.984375 60.40625 
L 10.984375 69.390625 
L 28.421875 72.90625 
L 38.28125 72.90625 
L 38.28125 8.296875 
L 54.390625 8.296875 
L 54.390625 0 
L 12.40625 0 
z
" id="BitstreamVeraSans-Roman-31"/>
      </defs>
      <g style="fill:#555555;" transform="translate(300.5625 250.8375)scale(0.1 -0.1)">
       <use xlink:href="#BitstreamVeraSans-Roman-31"/>
       <use x="63.623046875" xlink:href="#BitstreamVeraSans-Roman-30"/>
      </g>
     </g>
    </g>
    <g id="xtick_7">
     <g id="line2d_19">
      <path clip-path="url(#pb83f82b53c)" d="M 362.725 235.239062 
L 362.725 12.039062 
" style="fill:none;stroke:#ffffff;stroke-linecap:square;stroke-width:0.5;"/>
     </g>
     <g id="line2d_20">
      <g>
       <use style="fill:#555555;stroke:#555555;stroke-width:0.5;" x="362.725" xlink:href="#m60d20427de" y="235.2390625"/>
      </g>
     </g>
     <g id="line2d_21">
      <g>
       <use style="fill:#555555;stroke:#555555;stroke-width:0.5;" x="362.725" xlink:href="#m87f7226b6a" y="12.0390625"/>
      </g>
     </g>
     <g id="text_7">
      <!-- 12 -->
      <g style="fill:#555555;" transform="translate(356.3625 250.8375)scale(0.1 -0.1)">
       <use xlink:href="#BitstreamVeraSans-Roman-31"/>
       <use x="63.623046875" xlink:href="#BitstreamVeraSans-Roman-32"/>
      </g>
     </g>
    </g>
   </g>
   <g id="matplotlib.axis_2">
    <g id="ytick_1">
     <g id="line2d_22">
      <path clip-path="url(#pb83f82b53c)" d="M 27.925 235.239062 
L 362.725 235.239062 
" style="fill:none;stroke:#ffffff;stroke-linecap:square;stroke-width:0.5;"/>
     </g>
     <g id="line2d_23">
      <defs>
       <path d="M 0 0 
L -4 0 
" id="m67b129b58b" style="stroke:#555555;stroke-width:0.5;"/>
      </defs>
      <g>
       <use style="fill:#555555;stroke:#555555;stroke-width:0.5;" x="27.925" xlink:href="#m67b129b58b" y="235.2390625"/>
      </g>
     </g>
     <g id="line2d_24">
      <defs>
       <path d="M 0 0 
L 4 0 
" id="ma8dd88bb5e" style="stroke:#555555;stroke-width:0.5;"/>
      </defs>
      <g>
       <use style="fill:#555555;stroke:#555555;stroke-width:0.5;" x="362.725" xlink:href="#ma8dd88bb5e" y="235.2390625"/>
      </g>
     </g>
     <g id="text_8">
      <!-- 32 -->
      <defs>
       <path d="M 40.578125 39.3125 
Q 47.65625 37.796875 51.625 33 
Q 55.609375 28.21875 55.609375 21.1875 
Q 55.609375 10.40625 48.1875 4.484375 
Q 40.765625 -1.421875 27.09375 -1.421875 
Q 22.515625 -1.421875 17.65625 -0.515625 
Q 12.796875 0.390625 7.625 2.203125 
L 7.625 11.71875 
Q 11.71875 9.328125 16.59375 8.109375 
Q 21.484375 6.890625 26.8125 6.890625 
Q 36.078125 6.890625 40.9375 10.546875 
Q 45.796875 14.203125 45.796875 21.1875 
Q 45.796875 27.640625 41.28125 31.265625 
Q 36.765625 34.90625 28.71875 34.90625 
L 20.21875 34.90625 
L 20.21875 43.015625 
L 29.109375 43.015625 
Q 36.375 43.015625 40.234375 45.921875 
Q 44.09375 48.828125 44.09375 54.296875 
Q 44.09375 59.90625 40.109375 62.90625 
Q 36.140625 65.921875 28.71875 65.921875 
Q 24.65625 65.921875 20.015625 65.03125 
Q 15.375 64.15625 9.8125 62.3125 
L 9.8125 71.09375 
Q 15.4375 72.65625 20.34375 73.4375 
Q 25.25 74.21875 29.59375 74.21875 
Q 40.828125 74.21875 47.359375 69.109375 
Q 53.90625 64.015625 53.90625 55.328125 
Q 53.90625 49.265625 50.4375 45.09375 
Q 46.96875 40.921875 40.578125 39.3125 
" id="BitstreamVeraSans-Roman-33"/>
      </defs>
      <g style="fill:#555555;" transform="translate(7.2 237.9984375)scale(0.1 -0.1)">
       <use xlink:href="#BitstreamVeraSans-Roman-33"/>
       <use x="63.623046875" xlink:href="#BitstreamVeraSans-Roman-32"/>
      </g>
     </g>
    </g>
    <g id="ytick_2">
     <g id="line2d_25">
      <path clip-path="url(#pb83f82b53c)" d="M 27.925 203.353348 
L 362.725 203.353348 
" style="fill:none;stroke:#ffffff;stroke-linecap:square;stroke-width:0.5;"/>
     </g>
     <g id="line2d_26">
      <g>
       <use style="fill:#555555;stroke:#555555;stroke-width:0.5;" x="27.925" xlink:href="#m67b129b58b" y="203.353348214"/>
      </g>
     </g>
     <g id="line2d_27">
      <g>
       <use style="fill:#555555;stroke:#555555;stroke-width:0.5;" x="362.725" xlink:href="#ma8dd88bb5e" y="203.353348214"/>
      </g>
     </g>
     <g id="text_9">
      <!-- 34 -->
      <g style="fill:#555555;" transform="translate(7.2 206.112723214)scale(0.1 -0.1)">
       <use xlink:href="#BitstreamVeraSans-Roman-33"/>
       <use x="63.623046875" xlink:href="#BitstreamVeraSans-Roman-34"/>
      </g>
     </g>
    </g>
    <g id="ytick_3">
     <g id="line2d_28">
      <path clip-path="url(#pb83f82b53c)" d="M 27.925 171.467634 
L 362.725 171.467634 
" style="fill:none;stroke:#ffffff;stroke-linecap:square;stroke-width:0.5;"/>
     </g>
     <g id="line2d_29">
      <g>
       <use style="fill:#555555;stroke:#555555;stroke-width:0.5;" x="27.925" xlink:href="#m67b129b58b" y="171.467633929"/>
      </g>
     </g>
     <g id="line2d_30">
      <g>
       <use style="fill:#555555;stroke:#555555;stroke-width:0.5;" x="362.725" xlink:href="#ma8dd88bb5e" y="171.467633929"/>
      </g>
     </g>
     <g id="text_10">
      <!-- 36 -->
      <g style="fill:#555555;" transform="translate(7.2 174.227008929)scale(0.1 -0.1)">
       <use xlink:href="#BitstreamVeraSans-Roman-33"/>
       <use x="63.623046875" xlink:href="#BitstreamVeraSans-Roman-36"/>
      </g>
     </g>
    </g>
    <g id="ytick_4">
     <g id="line2d_31">
      <path clip-path="url(#pb83f82b53c)" d="M 27.925 139.58192 
L 362.725 139.58192 
" style="fill:none;stroke:#ffffff;stroke-linecap:square;stroke-width:0.5;"/>
     </g>
     <g id="line2d_32">
      <g>
       <use style="fill:#555555;stroke:#555555;stroke-width:0.5;" x="27.925" xlink:href="#m67b129b58b" y="139.581919643"/>
      </g>
     </g>
     <g id="line2d_33">
      <g>
       <use style="fill:#555555;stroke:#555555;stroke-width:0.5;" x="362.725" xlink:href="#ma8dd88bb5e" y="139.581919643"/>
      </g>
     </g>
     <g id="text_11">
      <!-- 38 -->
      <g style="fill:#555555;" transform="translate(7.2 142.341294643)scale(0.1 -0.1)">
       <use xlink:href="#BitstreamVeraSans-Roman-33"/>
       <use x="63.623046875" xlink:href="#BitstreamVeraSans-Roman-38"/>
      </g>
     </g>
    </g>
    <g id="ytick_5">
     <g id="line2d_34">
      <path clip-path="url(#pb83f82b53c)" d="M 27.925 107.696205 
L 362.725 107.696205 
" style="fill:none;stroke:#ffffff;stroke-linecap:square;stroke-width:0.5;"/>
     </g>
     <g id="line2d_35">
      <g>
       <use style="fill:#555555;stroke:#555555;stroke-width:0.5;" x="27.925" xlink:href="#m67b129b58b" y="107.696205357"/>
      </g>
     </g>
     <g id="line2d_36">
      <g>
       <use style="fill:#555555;stroke:#555555;stroke-width:0.5;" x="362.725" xlink:href="#ma8dd88bb5e" y="107.696205357"/>
      </g>
     </g>
     <g id="text_12">
      <!-- 40 -->
      <g style="fill:#555555;" transform="translate(7.2 110.455580357)scale(0.1 -0.1)">
       <use xlink:href="#BitstreamVeraSans-Roman-34"/>
       <use x="63.623046875" xlink:href="#BitstreamVeraSans-Roman-30"/>
      </g>
     </g>
    </g>
    <g id="ytick_6">
     <g id="line2d_37">
      <path clip-path="url(#pb83f82b53c)" d="M 27.925 75.810491 
L 362.725 75.810491 
" style="fill:none;stroke:#ffffff;stroke-linecap:square;stroke-width:0.5;"/>
     </g>
     <g id="line2d_38">
      <g>
       <use style="fill:#555555;stroke:#555555;stroke-width:0.5;" x="27.925" xlink:href="#m67b129b58b" y="75.8104910714"/>
      </g>
     </g>
     <g id="line2d_39">
      <g>
       <use style="fill:#555555;stroke:#555555;stroke-width:0.5;" x="362.725" xlink:href="#ma8dd88bb5e" y="75.8104910714"/>
      </g>
     </g>
     <g id="text_13">
      <!-- 42 -->
      <g style="fill:#555555;" transform="translate(7.2 78.5698660714)scale(0.1 -0.1)">
       <use xlink:href="#BitstreamVeraSans-Roman-34"/>
       <use x="63.623046875" xlink:href="#BitstreamVeraSans-Roman-32"/>
      </g>
     </g>
    </g>
    <g id="ytick_7">
     <g id="line2d_40">
      <path clip-path="url(#pb83f82b53c)" d="M 27.925 43.924777 
L 362.725 43.924777 
" style="fill:none;stroke:#ffffff;stroke-linecap:square;stroke-width:0.5;"/>
     </g>
     <g id="line2d_41">
      <g>
       <use style="fill:#555555;stroke:#555555;stroke-width:0.5;" x="27.925" xlink:href="#m67b129b58b" y="43.9247767857"/>
      </g>
     </g>
     <g id="line2d_42">
      <g>
       <use style="fill:#555555;stroke:#555555;stroke-width:0.5;" x="362.725" xlink:href="#ma8dd88bb5e" y="43.9247767857"/>
      </g>
     </g>
     <g id="text_14">
      <!-- 44 -->
      <g style="fill:#555555;" transform="translate(7.2 46.6841517857)scale(0.1 -0.1)">
       <use xlink:href="#BitstreamVeraSans-Roman-34"/>
       <use x="63.623046875" xlink:href="#BitstreamVeraSans-Roman-34"/>
      </g>
     </g>
    </g>
    <g id="ytick_8">
     <g id="line2d_43">
      <path clip-path="url(#pb83f82b53c)" d="M 27.925 12.039062 
L 362.725 12.039062 
" style="fill:none;stroke:#ffffff;stroke-linecap:square;stroke-width:0.5;"/>
     </g>
     <g id="line2d_44">
      <g>
       <use style="fill:#555555;stroke:#555555;stroke-width:0.5;" x="27.925" xlink:href="#m67b129b58b" y="12.0390625"/>
      </g>
     </g>
     <g id="line2d_45">
      <g>
       <use style="fill:#555555;stroke:#555555;stroke-width:0.5;" x="362.725" xlink:href="#ma8dd88bb5e" y="12.0390625"/>
      </g>
     </g>
     <g id="text_15">
      <!-- 46 -->
      <g style="fill:#555555;" transform="translate(7.2 14.7984375)scale(0.1 -0.1)">
       <use xlink:href="#BitstreamVeraSans-Roman-34"/>
       <use x="63.623046875" xlink:href="#BitstreamVeraSans-Roman-36"/>
      </g>
     </g>
    </g>
   </g>
   <g id="line2d_46">
    <path clip-path="url(#pb83f82b53c)" d="M 27.925 216.745348 
L 55.825 198.251634 
L 83.725 179.75792 
L 111.625 162.699063 
L 139.525 147.712777 
L 167.425 135.277348 
L 195.325 125.07392 
L 223.225 116.14592 
L 251.125 108.174491 
L 279.025 100.203062 
L 306.925 91.912777 
L 334.825 85.057348 
" style="fill:none;stroke:#00ff00;stroke-linecap:square;"/>
   </g>
   <g id="line2d_47">
    <path clip-path="url(#pb83f82b53c)" d="M 27.925 214.991634 
L 55.825 195.541348 
L 83.725 177.207063 
L 111.625 160.626491 
L 139.525 146.27792 
L 167.425 134.480205 
L 195.325 124.595634 
L 223.225 115.827063 
L 251.125 108.015062 
L 279.025 100.203062 
L 306.925 92.072205 
L 334.825 85.376205 
" style="fill:none;stroke:#08f600;stroke-linecap:square;"/>
   </g>
   <g id="line2d_48">
    <path clip-path="url(#pb83f82b53c)" d="M 27.925 203.831634 
L 55.825 184.22192 
L 83.725 166.525348 
L 111.625 150.74192 
L 139.525 137.031063 
L 167.425 125.392777 
L 195.325 115.348777 
L 223.225 106.261348 
L 251.125 98.130491 
L 279.025 89.840205 
L 306.925 81.390491 
L 334.825 74.535062 
" style="fill:none;stroke:#11ee00;stroke-linecap:square;"/>
   </g>
   <g id="line2d_49">
    <path clip-path="url(#pb83f82b53c)" d="M 27.925 171.94592 
L 55.825 152.655062 
L 83.725 135.915063 
L 111.625 121.247634 
L 139.525 108.652777 
L 167.425 97.971063 
L 195.325 88.724205 
L 223.225 80.274491 
L 251.125 72.62192 
L 279.025 64.80992 
L 306.925 56.838491 
L 334.825 50.461348 
" style="fill:none;stroke:#1ae600;stroke-linecap:square;"/>
   </g>
   <g id="line2d_50">
    <path clip-path="url(#pb83f82b53c)" d="M 27.925 159.351063 
L 55.825 140.379062 
L 83.725 124.755063 
L 111.625 110.884777 
L 139.525 98.927634 
L 167.425 88.724205 
L 195.325 79.636777 
L 223.225 71.346491 
L 251.125 63.853348 
L 279.025 56.200777 
L 306.925 48.229348 
L 334.825 42.011634 
" style="fill:none;stroke:#22dd00;stroke-linecap:square;"/>
   </g>
   <g id="line2d_51"/>
   <g id="line2d_52"/>
   <g id="line2d_53"/>
   <g id="line2d_54">
    <path clip-path="url(#pb83f82b53c)" d="M 27.925 154.887062 
L 55.825 136.871634 
L 83.725 121.566491 
L 111.625 108.015062 
L 139.525 96.376777 
L 167.425 86.492205 
L 195.325 77.723634 
L 223.225 69.433348 
L 251.125 61.940205 
L 279.025 54.447062 
L 306.925 46.635063 
L 334.825 40.576777 
" style="fill:none;stroke:#44bb00;stroke-linecap:square;"/>
   </g>
   <g id="line2d_55">
    <path clip-path="url(#pb83f82b53c)" d="M 27.925 161.90192 
L 55.825 145.321348 
L 83.725 131.451063 
L 111.625 119.334491 
L 139.525 108.971634 
L 167.425 100.043634 
L 195.325 91.753348 
L 223.225 83.78192 
L 251.125 76.607634 
L 279.025 69.27392 
L 306.925 61.46192 
L 334.825 55.244205 
" style="fill:none;stroke:#4cb200;stroke-linecap:square;"/>
   </g>
   <g id="line2d_56">
    <path clip-path="url(#pb83f82b53c)" d="M 27.925 141.654491 
L 55.825 125.871062 
L 83.725 112.638491 
L 111.625 101.319062 
L 139.525 91.59392 
L 167.425 83.144205 
L 195.325 75.172777 
L 223.225 67.679634 
L 251.125 60.824205 
L 279.025 53.809348 
L 306.925 46.316205 
L 334.825 40.25792 
" style="fill:none;stroke:#55aa00;stroke-linecap:square;"/>
   </g>
   <g id="line2d_57">
    <path clip-path="url(#pb83f82b53c)" d="M 27.925 158.55392 
L 55.825 142.451634 
L 83.725 129.059634 
L 111.625 117.26192 
L 139.525 107.058491 
L 167.425 98.130491 
L 195.325 89.840205 
L 223.225 82.028205 
L 251.125 74.85392 
L 279.025 67.520205 
L 306.925 59.867634 
L 334.825 53.64992 
" style="fill:none;stroke:#5ea200;stroke-linecap:square;"/>
   </g>
   <g id="line2d_58"/>
   <g id="line2d_59"/>
   <g id="line2d_60"/>
   <g id="line2d_61">
    <path clip-path="url(#pb83f82b53c)" d="M 27.925 137.987634 
L 55.825 121.885348 
L 83.725 108.812205 
L 111.625 97.492777 
L 139.525 87.767634 
L 167.425 79.31792 
L 195.325 71.346491 
L 223.225 63.853348 
L 251.125 56.99792 
L 279.025 50.142491 
L 306.925 42.968205 
L 334.825 37.388205 
" style="fill:none;stroke:#808000;stroke-linecap:square;"/>
   </g>
   <g id="line2d_62">
    <path clip-path="url(#pb83f82b53c)" d="M 27.925 147.553348 
L 55.825 132.88592 
L 83.725 121.247634 
L 111.625 110.884777 
L 139.525 101.63792 
L 167.425 93.507062 
L 195.325 85.854491 
L 223.225 78.520777 
L 251.125 71.824777 
L 279.025 64.969348 
L 306.925 57.795062 
L 334.825 52.215063 
" style="fill:none;stroke:#887700;stroke-linecap:square;"/>
   </g>
   <g id="line2d_63">
    <path clip-path="url(#pb83f82b53c)" d="M 27.925 169.235634 
L 55.825 154.568205 
L 83.725 142.292205 
L 111.625 131.291634 
L 139.525 121.407062 
L 167.425 112.479062 
L 195.325 104.029348 
L 223.225 96.05792 
L 251.125 88.724205 
L 279.025 81.390491 
L 306.925 73.73792 
L 334.825 67.679634 
" style="fill:none;stroke:#906e00;stroke-linecap:square;"/>
   </g>
   <g id="line2d_64">
    <path clip-path="url(#pb83f82b53c)" d="M 27.925 191.555634 
L 55.825 174.496777 
L 83.725 157.597348 
L 111.625 143.886491 
L 139.525 131.451063 
L 167.425 120.60992 
L 195.325 110.884777 
L 223.225 101.797348 
L 251.125 93.188205 
L 279.025 85.216777 
L 306.925 77.404777 
L 334.825 69.27392 
" style="fill:none;stroke:#996600;stroke-linecap:square;"/>
   </g>
   <g id="line2d_65"/>
   <g id="line2d_66"/>
   <g id="line2d_67">
    <path clip-path="url(#pb83f82b53c)" d="M 27.925 191.715063 
L 55.825 170.511062 
L 83.725 152.176777 
L 111.625 137.031063 
L 139.525 123.639063 
L 167.425 112.479062 
L 195.325 102.435063 
L 223.225 93.188205 
L 251.125 84.419634 
L 279.025 76.288777 
L 306.925 68.15792 
L 334.825 59.867634 
" style="fill:none;stroke:#b24d00;stroke-linecap:square;"/>
   </g>
   <g id="line2d_68">
    <path clip-path="url(#pb83f82b53c)" d="M 27.925 188.207634 
L 55.825 167.163062 
L 83.725 148.191062 
L 111.625 132.567063 
L 139.525 118.856205 
L 167.425 107.377348 
L 195.325 97.17392 
L 223.225 87.767634 
L 251.125 78.839634 
L 279.025 70.549348 
L 306.925 62.259063 
L 334.825 53.809348 
" style="fill:none;stroke:#bb4400;stroke-linecap:square;"/>
   </g>
   <g id="line2d_69">
    <path clip-path="url(#pb83f82b53c)" d="M 27.925 179.120205 
L 55.825 159.510491 
L 83.725 141.176205 
L 111.625 126.030491 
L 139.525 112.957348 
L 167.425 101.956777 
L 195.325 92.231634 
L 223.225 83.144205 
L 251.125 74.535062 
L 279.025 66.404205 
L 306.925 58.273348 
L 334.825 49.983063 
" style="fill:none;stroke:#c43b00;stroke-linecap:square;"/>
   </g>
   <g id="line2d_70">
    <path clip-path="url(#pb83f82b53c)" d="M 27.925 149.944777 
L 55.825 131.451063 
L 83.725 114.711062 
L 111.625 101.319062 
L 139.525 89.840205 
L 167.425 80.274491 
L 195.325 71.50592 
L 223.225 63.215634 
L 251.125 55.084777 
L 279.025 47.432205 
L 306.925 39.779634 
L 334.825 32.127062 
" style="fill:none;stroke:#cc3300;stroke-linecap:square;"/>
   </g>
   <g id="line2d_71">
    <path clip-path="url(#pb83f82b53c)" d="M 27.925 166.525348 
L 55.825 145.959062 
L 83.725 127.624777 
L 111.625 113.116777 
L 139.525 101.000205 
L 167.425 91.275062 
L 195.325 82.506491 
L 223.225 74.056777 
L 251.125 65.766491 
L 279.025 58.11392 
L 306.925 50.461348 
L 334.825 42.649348 
" style="fill:none;stroke:#d42a00;stroke-linecap:square;"/>
   </g>
   <g id="line2d_72"/>
   <g id="line2d_73"/>
   <g id="line2d_74">
    <path clip-path="url(#pb83f82b53c)" d="M 27.925 177.52592 
L 55.825 151.539062 
L 83.725 130.494491 
L 111.625 114.232777 
L 139.525 100.52192 
L 167.425 89.36192 
L 195.325 79.477348 
L 223.225 69.911634 
L 251.125 60.664777 
L 279.025 52.055634 
L 306.925 43.765348 
L 334.825 35.315634 
" style="fill:none;stroke:#ee1100;stroke-linecap:square;"/>
   </g>
   <g id="line2d_75">
    <path clip-path="url(#pb83f82b53c)" d="M 27.925 159.351063 
L 55.825 132.726491 
L 83.725 111.203634 
L 111.625 94.623062 
L 139.525 80.752777 
L 167.425 69.752205 
L 195.325 60.186491 
L 223.225 51.099063 
L 251.125 42.330491 
L 279.025 34.199634 
L 306.925 26.228205 
L 334.825 18.097348 
" style="fill:none;stroke:#f60800;stroke-linecap:square;"/>
   </g>
   <g id="patch_3">
    <path d="M 27.925 12.039062 
L 362.725 12.039062 
" style="fill:none;stroke:#ffffff;stroke-linecap:square;stroke-linejoin:miter;"/>
   </g>
   <g id="patch_4">
    <path d="M 362.725 235.239062 
L 362.725 12.039062 
" style="fill:none;stroke:#ffffff;stroke-linecap:square;stroke-linejoin:miter;"/>
   </g>
   <g id="patch_5">
    <path d="M 27.925 235.239062 
L 362.725 235.239062 
" style="fill:none;stroke:#ffffff;stroke-linecap:square;stroke-linejoin:miter;"/>
   </g>
   <g id="patch_6">
    <path d="M 27.925 235.239062 
L 27.925 12.039062 
" style="fill:none;stroke:#ffffff;stroke-linecap:square;stroke-linejoin:miter;"/>
   </g>
  </g>
 </g>
 <defs>
  <clipPath id="pb83f82b53c">
   <rect height="223.2" width="334.8" x="27.925" y="12.0390625"/>
  </clipPath>
 </defs>
</svg>
