<?xml version="1.0" encoding="utf-8" standalone="no"?>
<!DOCTYPE svg PUBLIC "-//W3C//DTD SVG 1.1//EN"
  "http://www.w3.org/Graphics/SVG/1.1/DTD/svg11.dtd">
<!-- Created with matplotlib (http://matplotlib.org/) -->
<svg height="252pt" version="1.1" viewBox="0 0 375 252" width="375pt" xmlns="http://www.w3.org/2000/svg" xmlns:xlink="http://www.w3.org/1999/xlink">
 <defs>
  <style type="text/css">
*{stroke-linecap:butt;stroke-linejoin:round;}
  </style>
 </defs>
 <g id="figure_1">
  <g id="patch_1">
   <path d="M 0 252.018125 
L 375.603125 252.018125 
L 375.603125 0 
L 0 0 
z
" style="fill:none;"/>
  </g>
  <g id="axes_1">
   <g id="patch_2">
    <path d="M 30.103125 228.14 
L 364.903125 228.14 
L 364.903125 10.7 
L 30.103125 10.7 
z
" style="fill:#e5e5e5;"/>
   </g>
   <g id="matplotlib.axis_1">
    <g id="xtick_1">
     <g id="line2d_1">
      <path clip-path="url(#p5942da9c00)" d="M 45.321307 228.14 
L 45.321307 10.7 
" style="fill:none;stroke:#ffffff;stroke-linecap:square;stroke-width:0.8;"/>
     </g>
     <g id="line2d_2">
      <defs>
       <path d="M 0 0 
L 0 3.5 
" id="m2e3542649c" style="stroke:#555555;stroke-width:0.8;"/>
      </defs>
      <g>
       <use style="fill:#555555;stroke:#555555;stroke-width:0.8;" x="45.321307" xlink:href="#m2e3542649c" y="228.14"/>
      </g>
     </g>
     <g id="text_1">
      <!-- 0 -->
      <defs>
       <path d="M 31.78125 66.40625 
Q 24.171875 66.40625 20.328125 58.90625 
Q 16.5 51.421875 16.5 36.375 
Q 16.5 21.390625 20.328125 13.890625 
Q 24.171875 6.390625 31.78125 6.390625 
Q 39.453125 6.390625 43.28125 13.890625 
Q 47.125 21.390625 47.125 36.375 
Q 47.125 51.421875 43.28125 58.90625 
Q 39.453125 66.40625 31.78125 66.40625 
z
M 31.78125 74.21875 
Q 44.046875 74.21875 50.515625 64.515625 
Q 56.984375 54.828125 56.984375 36.375 
Q 56.984375 17.96875 50.515625 8.265625 
Q 44.046875 -1.421875 31.78125 -1.421875 
Q 19.53125 -1.421875 13.0625 8.265625 
Q 6.59375 17.96875 6.59375 36.375 
Q 6.59375 54.828125 13.0625 64.515625 
Q 19.53125 74.21875 31.78125 74.21875 
z
" id="DejaVuSans-30"/>
      </defs>
      <g style="fill:#555555;" transform="translate(42.140057 242.738437)scale(0.1 -0.1)">
       <use xlink:href="#DejaVuSans-30"/>
      </g>
     </g>
    </g>
    <g id="xtick_2">
     <g id="line2d_3">
      <path clip-path="url(#p5942da9c00)" d="M 100.665181 228.14 
L 100.665181 10.7 
" style="fill:none;stroke:#ffffff;stroke-linecap:square;stroke-width:0.8;"/>
     </g>
     <g id="line2d_4">
      <g>
       <use style="fill:#555555;stroke:#555555;stroke-width:0.8;" x="100.665181" xlink:href="#m2e3542649c" y="228.14"/>
      </g>
     </g>
     <g id="text_2">
      <!-- 2000 -->
      <defs>
       <path d="M 19.1875 8.296875 
L 53.609375 8.296875 
L 53.609375 0 
L 7.328125 0 
L 7.328125 8.296875 
Q 12.9375 14.109375 22.625 23.890625 
Q 32.328125 33.6875 34.8125 36.53125 
Q 39.546875 41.84375 41.421875 45.53125 
Q 43.3125 49.21875 43.3125 52.78125 
Q 43.3125 58.59375 39.234375 62.25 
Q 35.15625 65.921875 28.609375 65.921875 
Q 23.96875 65.921875 18.8125 64.3125 
Q 13.671875 62.703125 7.8125 59.421875 
L 7.8125 69.390625 
Q 13.765625 71.78125 18.9375 73 
Q 24.125 74.21875 28.421875 74.21875 
Q 39.75 74.21875 46.484375 68.546875 
Q 53.21875 62.890625 53.21875 53.421875 
Q 53.21875 48.921875 51.53125 44.890625 
Q 49.859375 40.875 45.40625 35.40625 
Q 44.1875 33.984375 37.640625 27.21875 
Q 31.109375 20.453125 19.1875 8.296875 
z
" id="DejaVuSans-32"/>
      </defs>
      <g style="fill:#555555;" transform="translate(87.940181 242.738437)scale(0.1 -0.1)">
       <use xlink:href="#DejaVuSans-32"/>
       <use x="63.623047" xlink:href="#DejaVuSans-30"/>
       <use x="127.246094" xlink:href="#DejaVuSans-30"/>
       <use x="190.869141" xlink:href="#DejaVuSans-30"/>
      </g>
     </g>
    </g>
    <g id="xtick_3">
     <g id="line2d_5">
      <path clip-path="url(#p5942da9c00)" d="M 156.009055 228.14 
L 156.009055 10.7 
" style="fill:none;stroke:#ffffff;stroke-linecap:square;stroke-width:0.8;"/>
     </g>
     <g id="line2d_6">
      <g>
       <use style="fill:#555555;stroke:#555555;stroke-width:0.8;" x="156.009055" xlink:href="#m2e3542649c" y="228.14"/>
      </g>
     </g>
     <g id="text_3">
      <!-- 4000 -->
      <defs>
       <path d="M 37.796875 64.3125 
L 12.890625 25.390625 
L 37.796875 25.390625 
z
M 35.203125 72.90625 
L 47.609375 72.90625 
L 47.609375 25.390625 
L 58.015625 25.390625 
L 58.015625 17.1875 
L 47.609375 17.1875 
L 47.609375 0 
L 37.796875 0 
L 37.796875 17.1875 
L 4.890625 17.1875 
L 4.890625 26.703125 
z
" id="DejaVuSans-34"/>
      </defs>
      <g style="fill:#555555;" transform="translate(143.284055 242.738437)scale(0.1 -0.1)">
       <use xlink:href="#DejaVuSans-34"/>
       <use x="63.623047" xlink:href="#DejaVuSans-30"/>
       <use x="127.246094" xlink:href="#DejaVuSans-30"/>
       <use x="190.869141" xlink:href="#DejaVuSans-30"/>
      </g>
     </g>
    </g>
    <g id="xtick_4">
     <g id="line2d_7">
      <path clip-path="url(#p5942da9c00)" d="M 211.35293 228.14 
L 211.35293 10.7 
" style="fill:none;stroke:#ffffff;stroke-linecap:square;stroke-width:0.8;"/>
     </g>
     <g id="line2d_8">
      <g>
       <use style="fill:#555555;stroke:#555555;stroke-width:0.8;" x="211.35293" xlink:href="#m2e3542649c" y="228.14"/>
      </g>
     </g>
     <g id="text_4">
      <!-- 6000 -->
      <defs>
       <path d="M 33.015625 40.375 
Q 26.375 40.375 22.484375 35.828125 
Q 18.609375 31.296875 18.609375 23.390625 
Q 18.609375 15.53125 22.484375 10.953125 
Q 26.375 6.390625 33.015625 6.390625 
Q 39.65625 6.390625 43.53125 10.953125 
Q 47.40625 15.53125 47.40625 23.390625 
Q 47.40625 31.296875 43.53125 35.828125 
Q 39.65625 40.375 33.015625 40.375 
z
M 52.59375 71.296875 
L 52.59375 62.3125 
Q 48.875 64.0625 45.09375 64.984375 
Q 41.3125 65.921875 37.59375 65.921875 
Q 27.828125 65.921875 22.671875 59.328125 
Q 17.53125 52.734375 16.796875 39.40625 
Q 19.671875 43.65625 24.015625 45.921875 
Q 28.375 48.1875 33.59375 48.1875 
Q 44.578125 48.1875 50.953125 41.515625 
Q 57.328125 34.859375 57.328125 23.390625 
Q 57.328125 12.15625 50.6875 5.359375 
Q 44.046875 -1.421875 33.015625 -1.421875 
Q 20.359375 -1.421875 13.671875 8.265625 
Q 6.984375 17.96875 6.984375 36.375 
Q 6.984375 53.65625 15.1875 63.9375 
Q 23.390625 74.21875 37.203125 74.21875 
Q 40.921875 74.21875 44.703125 73.484375 
Q 48.484375 72.75 52.59375 71.296875 
z
" id="DejaVuSans-36"/>
      </defs>
      <g style="fill:#555555;" transform="translate(198.62793 242.738437)scale(0.1 -0.1)">
       <use xlink:href="#DejaVuSans-36"/>
       <use x="63.623047" xlink:href="#DejaVuSans-30"/>
       <use x="127.246094" xlink:href="#DejaVuSans-30"/>
       <use x="190.869141" xlink:href="#DejaVuSans-30"/>
      </g>
     </g>
    </g>
    <g id="xtick_5">
     <g id="line2d_9">
      <path clip-path="url(#p5942da9c00)" d="M 266.696804 228.14 
L 266.696804 10.7 
" style="fill:none;stroke:#ffffff;stroke-linecap:square;stroke-width:0.8;"/>
     </g>
     <g id="line2d_10">
      <g>
       <use style="fill:#555555;stroke:#555555;stroke-width:0.8;" x="266.696804" xlink:href="#m2e3542649c" y="228.14"/>
      </g>
     </g>
     <g id="text_5">
      <!-- 8000 -->
      <defs>
       <path d="M 31.78125 34.625 
Q 24.75 34.625 20.71875 30.859375 
Q 16.703125 27.09375 16.703125 20.515625 
Q 16.703125 13.921875 20.71875 10.15625 
Q 24.75 6.390625 31.78125 6.390625 
Q 38.8125 6.390625 42.859375 10.171875 
Q 46.921875 13.96875 46.921875 20.515625 
Q 46.921875 27.09375 42.890625 30.859375 
Q 38.875 34.625 31.78125 34.625 
z
M 21.921875 38.8125 
Q 15.578125 40.375 12.03125 44.71875 
Q 8.5 49.078125 8.5 55.328125 
Q 8.5 64.0625 14.71875 69.140625 
Q 20.953125 74.21875 31.78125 74.21875 
Q 42.671875 74.21875 48.875 69.140625 
Q 55.078125 64.0625 55.078125 55.328125 
Q 55.078125 49.078125 51.53125 44.71875 
Q 48 40.375 41.703125 38.8125 
Q 48.828125 37.15625 52.796875 32.3125 
Q 56.78125 27.484375 56.78125 20.515625 
Q 56.78125 9.90625 50.3125 4.234375 
Q 43.84375 -1.421875 31.78125 -1.421875 
Q 19.734375 -1.421875 13.25 4.234375 
Q 6.78125 9.90625 6.78125 20.515625 
Q 6.78125 27.484375 10.78125 32.3125 
Q 14.796875 37.15625 21.921875 38.8125 
z
M 18.3125 54.390625 
Q 18.3125 48.734375 21.84375 45.5625 
Q 25.390625 42.390625 31.78125 42.390625 
Q 38.140625 42.390625 41.71875 45.5625 
Q 45.3125 48.734375 45.3125 54.390625 
Q 45.3125 60.0625 41.71875 63.234375 
Q 38.140625 66.40625 31.78125 66.40625 
Q 25.390625 66.40625 21.84375 63.234375 
Q 18.3125 60.0625 18.3125 54.390625 
z
" id="DejaVuSans-38"/>
      </defs>
      <g style="fill:#555555;" transform="translate(253.971804 242.738437)scale(0.1 -0.1)">
       <use xlink:href="#DejaVuSans-38"/>
       <use x="63.623047" xlink:href="#DejaVuSans-30"/>
       <use x="127.246094" xlink:href="#DejaVuSans-30"/>
       <use x="190.869141" xlink:href="#DejaVuSans-30"/>
      </g>
     </g>
    </g>
    <g id="xtick_6">
     <g id="line2d_11">
      <path clip-path="url(#p5942da9c00)" d="M 322.040678 228.14 
L 322.040678 10.7 
" style="fill:none;stroke:#ffffff;stroke-linecap:square;stroke-width:0.8;"/>
     </g>
     <g id="line2d_12">
      <g>
       <use style="fill:#555555;stroke:#555555;stroke-width:0.8;" x="322.040678" xlink:href="#m2e3542649c" y="228.14"/>
      </g>
     </g>
     <g id="text_6">
      <!-- 10000 -->
      <defs>
       <path d="M 12.40625 8.296875 
L 28.515625 8.296875 
L 28.515625 63.921875 
L 10.984375 60.40625 
L 10.984375 69.390625 
L 28.421875 72.90625 
L 38.28125 72.90625 
L 38.28125 8.296875 
L 54.390625 8.296875 
L 54.390625 0 
L 12.40625 0 
z
" id="DejaVuSans-31"/>
      </defs>
      <g style="fill:#555555;" transform="translate(306.134428 242.738437)scale(0.1 -0.1)">
       <use xlink:href="#DejaVuSans-31"/>
       <use x="63.623047" xlink:href="#DejaVuSans-30"/>
       <use x="127.246094" xlink:href="#DejaVuSans-30"/>
       <use x="190.869141" xlink:href="#DejaVuSans-30"/>
       <use x="254.492188" xlink:href="#DejaVuSans-30"/>
      </g>
     </g>
    </g>
   </g>
   <g id="matplotlib.axis_2">
    <g id="ytick_1">
     <g id="line2d_13">
      <path clip-path="url(#p5942da9c00)" d="M 30.103125 218.256364 
L 364.903125 218.256364 
" style="fill:none;stroke:#ffffff;stroke-linecap:square;stroke-width:0.8;"/>
     </g>
     <g id="line2d_14">
      <defs>
       <path d="M 0 0 
L -3.5 0 
" id="mf36ea2f3f5" style="stroke:#555555;stroke-width:0.8;"/>
      </defs>
      <g>
       <use style="fill:#555555;stroke:#555555;stroke-width:0.8;" x="30.103125" xlink:href="#mf36ea2f3f5" y="218.256364"/>
      </g>
     </g>
     <g id="text_7">
      <!-- 0.0 -->
      <defs>
       <path d="M 10.6875 12.40625 
L 21 12.40625 
L 21 0 
L 10.6875 0 
z
" id="DejaVuSans-2e"/>
      </defs>
      <g style="fill:#555555;" transform="translate(7.2 222.055582)scale(0.1 -0.1)">
       <use xlink:href="#DejaVuSans-30"/>
       <use x="63.623047" xlink:href="#DejaVuSans-2e"/>
       <use x="95.410156" xlink:href="#DejaVuSans-30"/>
      </g>
     </g>
    </g>
    <g id="ytick_2">
     <g id="line2d_15">
      <path clip-path="url(#p5942da9c00)" d="M 30.103125 178.721818 
L 364.903125 178.721818 
" style="fill:none;stroke:#ffffff;stroke-linecap:square;stroke-width:0.8;"/>
     </g>
     <g id="line2d_16">
      <g>
       <use style="fill:#555555;stroke:#555555;stroke-width:0.8;" x="30.103125" xlink:href="#mf36ea2f3f5" y="178.721818"/>
      </g>
     </g>
     <g id="text_8">
      <!-- 0.2 -->
      <g style="fill:#555555;" transform="translate(7.2 182.521037)scale(0.1 -0.1)">
       <use xlink:href="#DejaVuSans-30"/>
       <use x="63.623047" xlink:href="#DejaVuSans-2e"/>
       <use x="95.410156" xlink:href="#DejaVuSans-32"/>
      </g>
     </g>
    </g>
    <g id="ytick_3">
     <g id="line2d_17">
      <path clip-path="url(#p5942da9c00)" d="M 30.103125 139.187273 
L 364.903125 139.187273 
" style="fill:none;stroke:#ffffff;stroke-linecap:square;stroke-width:0.8;"/>
     </g>
     <g id="line2d_18">
      <g>
       <use style="fill:#555555;stroke:#555555;stroke-width:0.8;" x="30.103125" xlink:href="#mf36ea2f3f5" y="139.187273"/>
      </g>
     </g>
     <g id="text_9">
      <!-- 0.4 -->
      <g style="fill:#555555;" transform="translate(7.2 142.986491)scale(0.1 -0.1)">
       <use xlink:href="#DejaVuSans-30"/>
       <use x="63.623047" xlink:href="#DejaVuSans-2e"/>
       <use x="95.410156" xlink:href="#DejaVuSans-34"/>
      </g>
     </g>
    </g>
    <g id="ytick_4">
     <g id="line2d_19">
      <path clip-path="url(#p5942da9c00)" d="M 30.103125 99.652727 
L 364.903125 99.652727 
" style="fill:none;stroke:#ffffff;stroke-linecap:square;stroke-width:0.8;"/>
     </g>
     <g id="line2d_20">
      <g>
       <use style="fill:#555555;stroke:#555555;stroke-width:0.8;" x="30.103125" xlink:href="#mf36ea2f3f5" y="99.652727"/>
      </g>
     </g>
     <g id="text_10">
      <!-- 0.6 -->
      <g style="fill:#555555;" transform="translate(7.2 103.451946)scale(0.1 -0.1)">
       <use xlink:href="#DejaVuSans-30"/>
       <use x="63.623047" xlink:href="#DejaVuSans-2e"/>
       <use x="95.410156" xlink:href="#DejaVuSans-36"/>
      </g>
     </g>
    </g>
    <g id="ytick_5">
     <g id="line2d_21">
      <path clip-path="url(#p5942da9c00)" d="M 30.103125 60.118182 
L 364.903125 60.118182 
" style="fill:none;stroke:#ffffff;stroke-linecap:square;stroke-width:0.8;"/>
     </g>
     <g id="line2d_22">
      <g>
       <use style="fill:#555555;stroke:#555555;stroke-width:0.8;" x="30.103125" xlink:href="#mf36ea2f3f5" y="60.118182"/>
      </g>
     </g>
     <g id="text_11">
      <!-- 0.8 -->
      <g style="fill:#555555;" transform="translate(7.2 63.917401)scale(0.1 -0.1)">
       <use xlink:href="#DejaVuSans-30"/>
       <use x="63.623047" xlink:href="#DejaVuSans-2e"/>
       <use x="95.410156" xlink:href="#DejaVuSans-38"/>
      </g>
     </g>
    </g>
    <g id="ytick_6">
     <g id="line2d_23">
      <path clip-path="url(#p5942da9c00)" d="M 30.103125 20.583636 
L 364.903125 20.583636 
" style="fill:none;stroke:#ffffff;stroke-linecap:square;stroke-width:0.8;"/>
     </g>
     <g id="line2d_24">
      <g>
       <use style="fill:#555555;stroke:#555555;stroke-width:0.8;" x="30.103125" xlink:href="#mf36ea2f3f5" y="20.583636"/>
      </g>
     </g>
     <g id="text_12">
      <!-- 1.0 -->
      <g style="fill:#555555;" transform="translate(7.2 24.382855)scale(0.1 -0.1)">
       <use xlink:href="#DejaVuSans-31"/>
       <use x="63.623047" xlink:href="#DejaVuSans-2e"/>
       <use x="95.410156" xlink:href="#DejaVuSans-30"/>
      </g>
     </g>
    </g>
   </g>
   <g id="line2d_25">
    <path clip-path="url(#p5942da9c00)" d="M 45.321307 202.030398 
L 45.348979 20.583636 
L 45.404323 208.414818 
L 45.431995 145.536631 
L 45.542682 20.583636 
L 45.487338 208.414818 
L 45.570354 98.361794 
L 45.598026 208.414818 
L 45.681042 98.361794 
L 45.708714 145.536631 
L 45.736386 20.583636 
L 45.764058 20.583636 
L 45.874746 191.504269 
L 45.902417 174.149616 
L 46.040777 20.583636 
L 46.068449 20.583636 
L 46.096121 174.149616 
L 46.179137 20.583636 
L 46.234481 191.504269 
L 46.317497 145.536631 
L 46.455856 20.583636 
L 46.566544 191.504269 
L 46.594216 98.361794 
L 46.621888 174.149616 
L 46.64956 20.583636 
L 46.677232 145.536631 
L 46.732576 174.149616 
L 46.760248 20.583636 
L 46.843263 208.414818 
L 46.898607 202.030398 
L 46.926279 202.030398 
L 46.953951 208.414818 
L 46.981623 191.504269 
L 47.064639 191.504269 
L 47.119983 208.414818 
L 47.147655 145.536631 
L 47.23067 191.504269 
L 47.258342 191.504269 
L 47.36903 208.414818 
L 47.396702 191.504269 
L 47.424374 98.361794 
L 47.452046 208.414818 
L 47.50739 174.149616 
L 47.618078 20.583636 
L 47.673421 212.287164 
L 47.756437 208.414818 
L 47.784109 202.030398 
L 47.811781 20.583636 
L 47.894797 145.536631 
L 47.922469 98.361794 
L 47.950141 191.504269 
L 47.977813 208.414818 
L 48.005485 191.504269 
L 48.033157 20.583636 
L 48.088501 205.965761 
L 48.116172 180.920808 
L 48.171516 180.920808 
L 48.199188 211.204588 
L 48.22686 153.183888 
L 48.254532 153.183888 
L 48.337548 20.583636 
L 48.475908 211.204588 
L 48.641939 104.84096 
L 48.669611 180.920808 
L 48.697283 20.583636 
L 48.752627 20.583636 
L 48.835643 214.210383 
L 48.890987 196.834961 
L 48.974003 20.583636 
L 49.001674 180.920808 
L 49.029346 180.920808 
L 49.057018 211.204588 
L 49.195378 20.583636 
L 49.22305 153.183888 
L 49.306066 104.84096 
L 49.36141 20.583636 
L 49.389082 153.183888 
L 49.416754 180.920808 
L 49.499769 20.583636 
L 49.472097 211.204588 
L 49.527441 180.920808 
L 49.610457 180.920808 
L 49.665801 211.204588 
L 49.748817 20.583636 
L 49.776489 153.183888 
L 49.859505 104.84096 
L 49.997864 20.583636 
L 50.053208 196.834961 
L 50.108552 153.183888 
L 50.136224 20.583636 
L 50.191568 211.204588 
L 50.21924 196.834961 
L 50.246912 20.583636 
L 50.274584 211.204588 
L 50.329927 153.183888 
L 50.385271 211.204588 
L 50.495959 20.583636 
L 50.551303 196.834961 
L 50.606647 20.583636 
L 50.634319 20.583636 
L 50.689663 196.834961 
L 50.745006 20.583636 
L 50.772678 20.583636 
L 50.855694 213.387264 
L 50.911038 187.232369 
L 51.021726 20.583636 
L 51.160086 201.521788 
L 51.270773 160.741416 
L 51.298445 20.583636 
L 51.326117 201.521788 
L 51.353789 201.521788 
L 51.464477 187.232369 
L 51.519821 213.387264 
L 51.630508 20.583636 
L 51.685852 213.387264 
L 51.741196 20.583636 
L 51.851884 213.387264 
L 51.962572 20.583636 
L 52.100931 201.521788 
L 52.156275 20.583636 
L 52.211619 160.741416 
L 52.239291 160.741416 
L 52.294635 187.232369 
L 52.377651 20.583636 
L 52.432995 20.583636 
L 52.571354 213.387264 
L 52.599026 213.387264 
L 52.682042 160.741416 
L 52.709714 213.387264 
L 52.765058 160.741416 
L 52.79273 20.583636 
L 52.848074 213.387264 
L 52.986433 201.521788 
L 53.069449 201.521788 
L 53.097121 160.741416 
L 53.124793 213.387264 
L 53.180137 201.521788 
L 53.207809 215.629935 
L 53.290825 213.387264 
L 53.429184 160.741416 
L 53.484528 209.229608 
L 53.539872 160.741416 
L 53.65056 211.85022 
L 53.678232 193.001984 
L 53.733576 211.85022 
L 53.761248 216.631351 
L 53.78892 205.536962 
L 53.816592 215.029901 
L 53.954951 168.113778 
L 54.065639 20.583636 
L 54.120983 205.536962 
L 54.176327 20.583636 
L 54.287014 205.536962 
L 54.397702 20.583636 
L 54.480718 205.536962 
L 54.536062 193.001984 
L 54.563734 193.001984 
L 54.591406 205.536962 
L 54.619078 193.001984 
L 54.674422 205.536962 
L 54.702094 20.583636 
L 54.785109 215.029901 
L 54.812781 20.583636 
L 54.923469 215.029901 
L 54.951141 193.001984 
L 54.978813 193.001984 
L 55.034157 205.536962 
L 55.144844 20.583636 
L 55.283204 215.029901 
L 55.36622 20.583636 
L 55.393892 215.029901 
L 55.559924 20.583636 
L 55.642939 205.536962 
L 55.670611 20.583636 
L 55.753627 20.583636 
L 55.781299 216.631351 
L 55.864315 205.536962 
L 55.891987 205.536962 
L 55.975003 168.113778 
L 56.002675 205.536962 
L 56.030346 216.631351 
L 56.058018 211.85022 
L 56.08569 118.698232 
L 56.141034 215.029901 
L 56.168706 211.85022 
L 56.22405 215.029901 
L 56.279394 168.113778 
L 56.417754 216.213936 
L 56.445426 213.880001 
L 56.473097 175.202375 
L 56.528441 198.163275 
L 56.611457 216.213936 
L 56.639129 213.880001 
L 56.749817 175.202375 
L 56.722145 217.303173 
L 56.777489 208.879016 
L 56.832833 216.213936 
L 56.915848 213.880001 
L 56.998864 20.583636 
L 57.026536 208.879016 
L 57.054208 208.879016 
L 57.192568 20.583636 
L 57.330928 208.879016 
L 57.441615 20.583636 
L 57.469287 175.202375 
L 57.496959 213.880001 
L 57.552303 20.583636 
L 57.579975 217.303173 
L 57.607647 213.880001 
L 57.690663 216.213936 
L 57.746007 175.202375 
L 57.829022 216.213936 
L 57.856694 208.879016 
L 57.884366 175.202375 
L 57.912038 216.213936 
L 57.93971 216.213936 
L 57.967382 216.213936 
L 58.07807 213.880001 
L 58.105742 216.213936 
L 58.244101 175.202375 
L 58.382461 217.303173 
L 58.410133 175.202375 
L 58.493149 198.163275 
L 58.603837 213.880001 
L 58.631509 126.003454 
L 58.686852 216.213936 
L 58.714524 208.879016 
L 58.742196 216.213936 
L 58.852884 20.583636 
L 58.963572 216.213936 
L 59.101932 175.202375 
L 59.212619 217.027504 
L 59.350979 181.909643 
L 59.378651 20.583636 
L 59.433995 217.027504 
L 59.461667 181.909643 
L 59.489339 202.67073 
L 59.544682 211.573175 
L 59.627698 20.583636 
L 59.710714 202.67073 
L 59.738386 20.583636 
L 59.766058 20.583636 
L 59.904418 217.027504 
L 60.015105 181.909643 
L 60.153465 20.583636 
L 60.181137 217.027504 
L 60.264153 215.390583 
L 60.291825 133.493427 
L 60.319497 217.027504 
L 60.374841 215.390583 
L 60.457856 211.573175 
L 60.485528 181.909643 
L 60.5132 217.027504 
L 60.540872 211.573175 
L 60.65156 217.729423 
L 60.679232 181.909643 
L 60.762248 211.573175 
L 60.78992 217.027504 
L 60.817592 211.573175 
L 60.928279 181.909643 
L 61.038967 211.573175 
L 61.066639 181.909643 
L 61.121983 211.573175 
L 61.149655 20.583636 
L 61.204999 217.027504 
L 61.260343 133.493427 
L 61.288015 20.583636 
L 61.343358 217.027504 
L 61.37103 133.493427 
L 61.481718 215.390583 
L 61.537062 217.729423 
L 61.592406 181.909643 
L 61.620078 217.027504 
L 61.675422 181.909643 
L 61.703094 133.493427 
L 61.730766 217.027504 
L 61.758437 211.573175 
L 61.786109 211.573175 
L 61.896797 217.027504 
L 62.007485 188.143985 
L 62.062829 217.557582 
L 62.145845 213.669209 
L 62.173517 217.557582 
L 62.22886 188.143985 
L 62.284204 213.669209 
L 62.311876 206.503486 
L 62.339548 217.557582 
L 62.36722 217.557582 
L 62.422564 217.983629 
L 62.560924 188.143985 
L 62.616268 216.465995 
L 62.671611 206.503486 
L 62.754627 217.983629 
L 62.809971 216.465995 
L 62.948331 188.143985 
L 63.059019 213.669209 
L 63.08669 20.583636 
L 63.142034 217.557582 
L 63.169706 216.465995 
L 63.22505 188.143985 
L 63.280394 20.583636 
L 63.308066 141.104591 
L 63.446426 217.557582 
L 63.474098 20.583636 
L 63.557113 141.104591 
L 63.667801 213.669209 
L 63.695473 206.503486 
L 63.723145 213.669209 
L 63.750817 206.503486 
L 63.806161 217.983629 
L 63.833833 20.583636 
L 63.972192 213.669209 
L 63.999864 141.104591 
L 64.08288 213.669209 
L 64.110552 213.669209 
L 64.138224 20.583636 
L 64.165896 217.557582 
L 64.193568 213.669209 
L 64.22124 217.983629 
L 64.248912 213.669209 
L 64.276584 188.143985 
L 64.304256 216.465995 
L 64.331928 213.669209 
L 64.414943 216.465995 
L 64.442615 213.669209 
L 64.470287 206.503486 
L 64.497959 217.557582 
L 64.553303 213.669209 
L 64.580975 213.669209 
L 64.636319 188.143985 
L 64.691663 193.825159 
L 64.719335 218.125162 
L 64.830022 217.883164 
L 64.913038 215.236808 
L 65.023726 193.825159 
L 65.134414 217.883164 
L 65.162086 217.19481 
L 65.21743 193.825159 
L 65.272773 215.236808 
L 65.300445 217.883164 
L 65.328117 215.236808 
L 65.411133 148.762603 
L 65.438805 217.883164 
L 65.521821 209.667337 
L 65.577165 217.883164 
L 65.632509 193.825159 
L 65.687853 217.883164 
L 65.881556 215.236808 
L 65.909228 193.825159 
L 65.964572 215.236808 
L 66.019916 20.583636 
L 66.07526 215.236808 
L 66.130604 209.667337 
L 66.158275 20.583636 
L 66.213619 217.883164 
L 66.351979 209.667337 
L 66.379651 218.125162 
L 66.407323 148.762603 
L 66.490339 217.883164 
L 66.518011 209.667337 
L 66.601026 215.236808 
L 66.628698 215.236808 
L 66.65637 217.19481 
L 66.822402 148.762603 
L 66.877746 217.883164 
L 66.93309 209.667337 
L 66.960762 20.583636 
L 66.988434 215.236808 
L 67.016106 215.236808 
L 67.043777 215.236808 
L 67.126793 217.883164 
L 67.182137 193.825159 
L 67.237481 215.236808 
L 67.265153 217.19481 
L 67.375841 193.825159 
L 67.403513 209.667337 
L 67.431185 20.583636 
L 67.458857 216.358938 
L 67.486528 198.889657 
L 67.5142 218.070466 
L 67.569544 216.358938 
L 67.624888 20.583636 
L 67.680232 217.662455 
L 67.818592 216.358938 
L 67.873936 218.070466 
L 67.956951 198.889657 
L 68.067639 20.583636 
L 68.122983 218.198176 
L 68.178327 218.070466 
L 68.289015 198.889657 
L 68.37203 20.583636 
L 68.399702 156.38335 
L 68.455046 217.662455 
L 68.538062 216.358938 
L 68.565734 198.889657 
L 68.621078 20.583636 
L 68.64875 212.194442 
L 68.676422 198.889657 
L 68.731766 198.889657 
L 68.870125 212.194442 
L 69.008485 198.889657 
L 69.119173 217.662455 
L 69.146845 216.358938 
L 69.202189 216.358938 
L 69.22986 20.583636 
L 69.312876 198.889657 
L 69.340548 156.38335 
L 69.395892 198.889657 
L 69.423564 216.358938 
L 69.451236 198.889657 
L 69.50658 216.358938 
L 69.561924 20.583636 
L 69.589596 216.358938 
L 69.672611 20.583636 
L 69.755627 216.358938 
L 69.810971 198.889657 
L 69.838643 20.583636 
L 69.893987 218.070466 
L 69.921659 198.889657 
L 69.949331 198.889657 
L 69.977003 217.662455 
L 70.087691 20.583636 
L 70.170706 218.198176 
L 70.22605 217.12405 
L 70.281394 214.140492 
L 70.336738 217.12405 
L 70.392082 217.12405 
L 70.419754 218.170664 
L 70.447426 163.87479 
L 70.530442 217.12405 
L 70.558113 218.232787 
L 70.641129 217.12405 
L 70.696473 203.295496 
L 70.724145 214.140492 
L 70.751817 20.583636 
L 70.807161 217.944854 
L 70.834833 217.944854 
L 70.862505 217.12405 
L 70.890177 203.295496 
L 70.917849 217.944854 
L 70.945521 214.140492 
L 70.973193 217.944854 
L 71.000864 217.12405 
L 71.028536 20.583636 
L 71.08388 217.944854 
L 71.111552 217.944854 
L 71.166896 203.295496 
L 71.194568 20.583636 
L 71.22224 217.12405 
L 71.249912 163.87479 
L 71.3606 217.12405 
L 71.388272 203.295496 
L 71.415944 20.583636 
L 71.471287 218.170664 
L 71.554303 214.140492 
L 71.581975 217.12405 
L 71.637319 217.12405 
L 71.720335 20.583636 
L 71.748007 203.295496 
L 71.831023 218.232787 
L 71.886366 217.944854 
L 71.94171 214.140492 
L 71.997054 217.12405 
L 72.024726 217.944854 
L 72.052398 203.295496 
L 72.135414 217.944854 
L 72.163086 218.170664 
L 72.190758 217.944854 
L 72.21843 217.12405 
L 72.273774 203.295496 
L 72.329117 217.12405 
L 72.384461 217.12405 
L 72.412133 163.87479 
L 72.439805 217.944854 
L 72.495149 203.295496 
L 72.522821 203.295496 
L 72.661181 218.170664 
L 72.79954 217.12405 
L 72.827212 217.12405 
L 72.854884 203.295496 
L 72.910228 218.170664 
L 72.9379 214.140492 
L 72.993244 218.220113 
L 73.048588 215.579476 
L 73.103932 217.618309 
L 73.131604 207.02578 
L 73.186947 218.247723 
L 73.242291 217.618309 
L 73.269963 217.618309 
L 73.325307 218.220113 
L 73.408323 207.02578 
L 73.546683 218.220113 
L 73.574355 218.220113 
L 73.629698 215.579476 
L 73.768058 20.583636 
L 73.79573 20.583636 
L 73.906418 207.02578 
L 73.93409 171.139698 
L 73.961762 218.104279 
L 73.989434 207.02578 
L 74.017106 20.583636 
L 74.072449 218.104279 
L 74.100121 215.579476 
L 74.155465 218.220113 
L 74.183137 217.618309 
L 74.266153 218.220113 
L 74.321497 20.583636 
L 74.459857 218.247723 
L 74.5152 207.02578 
L 74.570544 217.618309 
L 74.681232 218.247723 
L 74.79192 217.618309 
L 74.874936 171.139698 
L 74.902608 217.618309 
L 74.93028 217.618309 
L 74.957951 207.02578 
L 75.013295 218.104279 
L 75.040967 215.579476 
L 75.068639 218.104279 
L 75.096311 207.02578 
L 75.123983 218.247723 
L 75.179327 218.104279 
L 75.262343 207.02578 
L 75.373031 218.247723 
L 75.428374 215.579476 
L 75.456046 171.139698 
L 75.483718 217.618309 
L 75.51139 217.618309 
L 75.539062 217.618309 
L 75.594406 207.02578 
L 75.622078 218.220113 
L 75.64975 218.220113 
L 75.760438 210.09038 
L 75.871125 218.242428 
L 75.898797 210.09038 
L 75.981813 218.242428 
L 76.009485 218.242428 
L 76.064829 216.596626 
L 76.092501 217.919022 
L 76.147845 218.242428 
L 76.203189 210.09038 
L 76.258533 218.253531 
L 76.313876 218.187799 
L 76.341548 210.09038 
L 76.424564 217.919022 
L 76.50758 218.187799 
L 76.535252 210.09038 
L 76.618268 218.253531 
L 76.64594 218.187799 
L 76.756627 210.09038 
L 76.784299 217.919022 
L 76.811971 20.583636 
L 76.867315 218.242428 
L 76.894987 210.09038 
L 76.950331 210.09038 
L 76.978003 20.583636 
L 77.005675 216.596626 
L 77.033347 216.596626 
L 77.061019 216.596626 
L 77.088691 218.187799 
L 77.116363 20.583636 
L 77.199378 218.187799 
L 77.254722 216.596626 
L 77.282394 20.583636 
L 77.310066 218.187799 
L 77.36541 210.09038 
L 77.476098 218.253531 
L 77.50377 217.919022 
L 77.531442 218.242428 
L 77.559114 217.919022 
L 77.586785 216.596626 
L 77.614457 178.079351 
L 77.642129 218.187799 
L 77.697473 210.09038 
L 77.725145 210.09038 
L 77.780489 218.242428 
L 77.808161 217.919022 
L 77.863505 218.242428 
L 77.946521 178.079351 
L 78.029536 218.242428 
L 78.08488 216.596626 
L 78.112552 218.242428 
L 78.140224 178.079351 
L 78.22324 218.242428 
L 78.278584 216.596626 
L 78.306256 218.242428 
L 78.333928 20.583636 
L 78.416944 218.253531 
L 78.444616 218.187799 
L 78.527631 218.228071 
L 78.555303 212.525269 
L 78.638319 218.251546 
L 78.665991 218.090203 
L 78.721335 218.090203 
L 78.804351 212.525269 
L 78.776679 218.251546 
L 78.832023 218.090203 
L 78.859695 218.228071 
L 78.998054 184.598063 
L 79.108742 218.255543 
L 79.136414 218.090203 
L 79.191758 218.255543 
L 79.21943 218.228071 
L 79.247102 212.525269 
L 79.274774 218.251546 
L 79.330118 218.228071 
L 79.357789 218.255543 
L 79.385461 218.090203 
L 79.413133 212.525269 
L 79.468477 217.280514 
L 79.496149 218.228071 
L 79.634509 184.598063 
L 79.662181 218.255543 
L 79.745197 212.525269 
L 79.772869 184.598063 
L 79.80054 218.090203 
L 79.828212 212.525269 
L 79.911228 218.090203 
L 79.9389 184.598063 
L 80.021916 218.228071 
L 80.104932 212.525269 
L 80.132604 217.280514 
L 80.21562 218.251546 
L 80.243291 20.583636 
L 80.326307 212.525269 
L 80.353979 212.525269 
L 80.492339 218.255543 
L 80.603027 218.228071 
L 80.630699 217.280514 
L 80.713714 218.228071 
L 80.741386 184.598063 
L 80.824402 218.090203 
L 80.852074 218.251546 
L 80.879746 218.228071 
L 80.93509 212.525269 
L 80.990434 218.090203 
L 81.045778 218.090203 
L 81.07345 217.280514 
L 81.101122 212.525269 
L 81.128793 218.251546 
L 81.156465 218.228071 
L 81.211809 218.228071 
L 81.239481 218.090203 
L 81.267153 217.280514 
L 81.322497 218.245782 
L 81.350169 218.180713 
L 81.405513 218.245782 
L 81.488529 214.389303 
L 81.543873 218.254884 
L 81.626888 218.245782 
L 81.709904 218.180713 
L 81.737576 218.254884 
L 81.848264 218.180713 
L 81.875936 214.389303 
L 81.93128 218.254884 
L 81.986623 218.256157 
L 82.014295 214.389303 
L 82.097311 217.715487 
L 82.124983 218.256157 
L 82.207999 218.245782 
L 82.235671 214.389303 
L 82.263343 218.256157 
L 82.318687 217.715487 
L 82.457046 218.254884 
L 82.51239 218.254884 
L 82.65075 214.389303 
L 82.678422 218.254884 
L 82.706094 190.608353 
L 82.78911 218.180713 
L 82.872125 218.254884 
L 82.955141 190.608353 
L 82.982813 218.245782 
L 83.010485 218.254884 
L 83.148845 217.715487 
L 83.259533 218.254884 
L 83.287205 218.245782 
L 83.37022 218.180713 
L 83.453236 214.389303 
L 83.480908 218.180713 
L 83.50858 217.715487 
L 83.563924 218.180713 
L 83.591596 218.254884 
L 83.729956 190.608353 
L 83.785299 218.256157 
L 83.868315 218.245782 
L 83.979003 218.245782 
L 84.006675 217.715487 
L 84.062019 218.252816 
L 84.089691 218.252816 
L 84.117363 217.975602 
L 84.145035 215.758663 
L 84.172707 218.224804 
L 84.200378 218.224804 
L 84.22805 218.255965 
L 84.255722 217.975602 
L 84.311066 218.224804 
L 84.36641 215.758663 
L 84.50477 218.255965 
L 84.587786 218.224804 
L 84.615458 196.036388 
L 84.670801 218.255965 
L 84.698473 218.255965 
L 84.726145 218.224804 
L 84.809161 218.255965 
L 84.864505 217.975602 
L 84.947521 218.224804 
L 85.030537 218.255965 
L 85.058209 196.036388 
L 85.168896 218.255965 
L 85.196568 218.224804 
L 85.3626 218.224804 
L 85.390272 217.975602 
L 85.445616 215.758663 
L 85.473288 218.252816 
L 85.50096 218.255965 
L 85.583975 217.975602 
L 85.611647 215.758663 
L 85.639319 218.224804 
L 85.666991 218.224804 
L 85.805351 218.256319 
L 85.943711 218.224804 
L 85.971382 215.758663 
L 86.026726 218.256319 
L 86.054398 218.252816 
L 86.08207 218.224804 
L 86.109742 218.252816 
L 86.137414 196.036388 
L 86.192758 218.255965 
L 86.22043 218.224804 
L 86.303446 218.255965 
L 86.331118 218.224804 
L 86.414133 218.255965 
L 86.469477 215.758663 
L 86.497149 218.255965 
L 86.524821 218.224804 
L 86.552493 196.036388 
L 86.580165 218.255965 
L 86.635509 218.224804 
L 86.663181 217.975602 
L 86.690853 218.255965 
L 86.718525 215.758663 
L 86.801541 218.255965 
L 86.856884 218.244416 
L 86.995244 218.120865 
L 87.050588 216.719603 
L 87.07826 218.25531 
L 87.21662 218.256271 
L 87.327307 216.719603 
L 87.437995 218.256271 
L 87.465667 218.25531 
L 87.493339 218.25531 
L 87.521011 218.120865 
L 87.604027 218.244416 
L 87.659371 218.256355 
L 87.79773 216.719603 
L 87.825402 218.256271 
L 87.880746 218.120865 
L 87.908418 200.8272 
L 87.963762 218.25531 
L 87.991434 218.120865 
L 88.019106 218.256271 
L 88.046778 218.244416 
L 88.129794 216.719603 
L 88.157465 218.244416 
L 88.212809 218.244416 
L 88.240481 218.120865 
L 88.351169 216.719603 
L 88.434185 218.256271 
L 88.461857 218.244416 
L 88.489529 216.719603 
L 88.517201 218.25531 
L 88.572545 218.256271 
L 88.65556 218.25531 
L 88.738576 216.719603 
L 88.766248 218.120865 
L 88.876936 218.244416 
L 88.904608 218.120865 
L 88.959952 218.244416 
L 89.015296 216.719603 
L 89.125983 218.25531 
L 89.153655 218.244416 
L 89.208999 218.256355 
L 89.236671 218.120865 
L 89.319687 218.244416 
L 89.347359 216.719603 
L 89.402703 218.25531 
L 89.430375 218.244416 
L 89.485718 218.256355 
L 89.51339 218.120865 
L 89.568734 218.244416 
L 89.596406 204.949032 
L 89.65175 218.256345 
L 89.679422 218.25609 
L 89.762438 217.360514 
L 89.79011 218.252304 
L 89.817782 218.196055 
L 89.873126 218.25609 
L 89.900798 217.360514 
L 89.983813 218.252304 
L 90.260533 218.256345 
L 90.37122 217.360514 
L 90.398892 218.256345 
L 90.426564 217.360514 
L 90.454236 204.949032 
L 90.481908 218.256345 
L 90.50958 217.360514 
L 90.620268 218.25609 
L 90.64794 218.252304 
L 90.675612 218.196055 
L 90.703284 204.949032 
L 90.758628 218.256345 
L 90.7863 218.252304 
L 91.173707 218.252304 
L 91.22905 218.256345 
L 91.284394 217.360514 
L 91.422754 218.25609 
L 91.450426 218.252304 
L 91.478098 217.360514 
L 91.50577 218.256345 
L 91.561114 218.252304 
L 91.64413 218.256345 
L 91.671801 217.360514 
L 91.754817 218.252304 
L 91.837833 218.256345 
L 91.948521 217.360514 
L 92.031537 218.252304 
L 92.059209 204.949032 
L 92.086881 217.360514 
L 92.114552 20.583636 
L 92.169896 218.256345 
L 92.197568 217.360514 
L 92.252912 218.256345 
L 92.308256 218.196055 
L 92.335928 218.196055 
L 92.3636 217.764525 
L 92.391272 20.583636 
L 92.446616 218.256361 
L 92.474288 218.256361 
L 92.50196 208.396185 
L 92.584975 218.23183 
L 92.723335 218.23183 
L 92.834023 208.396185 
L 92.944711 218.256361 
L 93.027726 208.396185 
L 93.055398 20.583636 
L 93.110742 218.256363 
L 93.138414 218.25514 
L 93.166086 208.396185 
L 93.249102 20.583636 
L 93.387462 218.256363 
L 93.415134 20.583636 
L 93.498149 218.256361 
L 93.525821 208.396185 
L 93.608837 218.256363 
L 93.664181 217.764525 
L 93.719525 218.23183 
L 93.830213 20.583636 
L 93.885556 218.256361 
L 93.968572 218.23183 
L 93.996244 218.25514 
L 94.023916 20.583636 
L 94.106932 218.256303 
L 94.162276 218.23183 
L 94.189948 20.583636 
L 94.21762 218.25514 
L 94.272964 218.25514 
L 94.411323 218.256303 
L 94.438995 217.764525 
L 94.522011 218.23183 
L 94.577355 218.25514 
L 94.632699 208.396185 
L 94.771058 218.256361 
L 94.909418 218.23183 
L 94.93709 208.396185 
L 94.964762 218.256361 
L 95.020106 218.23183 
L 95.213809 218.256363 
L 95.241481 20.583636 
L 95.324497 218.256352 
L 95.65656 218.247333 
L 95.711904 218.256041 
L 95.739576 218.003739 
L 95.767248 211.189752 
L 95.822592 218.256364 
L 95.905608 218.256041 
L 95.93328 218.003739 
L 96.016296 218.247333 
L 96.071639 218.247333 
L 96.099311 218.003739 
L 96.126983 218.256041 
L 96.182327 218.256363 
L 96.265343 218.247333 
L 96.293015 218.003739 
L 96.320687 218.256352 
L 96.376031 218.256041 
L 96.486719 218.256041 
L 96.51439 211.189752 
L 96.597406 218.247333 
L 96.625078 218.256352 
L 96.65275 211.189752 
L 96.735766 218.247333 
L 96.874126 218.256364 
L 96.901798 218.003739 
L 96.984813 218.256363 
L 97.012485 218.256041 
L 97.040157 218.003739 
L 97.067829 211.189752 
L 97.123173 218.256352 
L 97.233861 218.256364 
L 97.344549 218.003739 
L 97.482908 218.256363 
L 97.538252 218.256041 
L 97.565924 218.003739 
L 97.64894 218.256041 
L 97.676612 218.256352 
L 97.759628 218.003739 
L 97.7873 218.256041 
L 97.842643 218.256352 
L 97.870315 211.189752 
L 97.953331 218.256362 
L 97.981003 218.135866 
L 98.036347 213.37588 
L 98.064019 218.256364 
L 98.147035 218.256364 
L 98.174707 218.135866 
L 98.257723 218.253389 
L 98.340738 218.256362 
L 98.36841 213.37588 
L 98.451426 218.25629 
L 99.060209 218.253389 
L 99.170896 218.135866 
L 99.309256 218.256364 
L 99.447616 218.256362 
L 99.475288 218.135866 
L 99.558304 218.25629 
L 99.668991 218.256362 
L 99.696663 213.37588 
L 99.779679 218.256364 
L 99.918039 218.135866 
L 100.056398 218.25629 
L 100.305446 218.256364 
L 100.416134 218.135866 
L 100.554493 218.25629 
L 100.997244 218.256349 
L 101.135604 215.021518 
L 101.273964 218.256364 
L 101.882746 218.203427 
L 101.910418 215.021518 
L 101.965762 218.256363 
L 102.325497 218.203427 
L 102.380841 218.256364 
L 102.436185 215.021518 
L 102.463857 20.583636 
L 102.519201 218.256349 
L 103.404703 218.255497 
L 103.432375 216.208039 
L 103.460047 218.256361 
L 103.515391 218.256361 
L 103.847454 218.256364 
L 103.93047 216.208039 
L 103.958142 218.235138 
L 104.151845 218.256364 
L 105.009675 218.256361 
L 105.037347 216.208039 
L 105.120363 218.256364 
L 105.203379 218.256364 
L 105.341738 216.208039 
L 105.480098 218.256364 
L 105.590786 218.256144 
L 105.618458 216.208039 
L 105.701474 218.256361 
L 106.669991 218.256363 
L 106.697663 217.023562 
L 106.780679 218.256364 
L 107.527821 218.256364 
L 107.555493 217.023562 
L 107.638509 218.256363 
L 109.188138 218.256364 
L 109.21581 217.55509 
L 109.298825 218.256364 
L 109.93528 218.253876 
L 109.990624 217.55509 
L 110.045968 218.256364 
L 110.128984 218.256364 
L 110.239671 217.55509 
L 110.378031 218.256364 
L 110.571735 218.256364 
L 110.710094 217.55509 
L 110.848454 218.256355 
L 111.152845 218.253876 
L 111.180517 217.55509 
L 111.263533 218.256364 
L 111.346549 218.256364 
L 111.374221 217.55509 
L 111.457237 218.256364 
L 111.51258 218.256364 
L 111.540252 20.583636 
L 111.623268 217.55509 
L 111.761628 218.256364 
L 112.896177 218.255653 
L 112.923849 217.881685 
L 113.006865 218.256364 
L 113.117553 218.256364 
L 113.145225 217.881685 
L 113.228241 218.256364 
L 113.587976 218.256364 
L 113.615648 217.881685 
L 113.698663 218.256362 
L 118.015486 218.256364 
L 199.952091 218.256364 
L 349.684943 218.256364 
L 349.684943 218.256364 
" style="fill:none;stroke:#e24a33;stroke-linecap:square;stroke-width:1.5;"/>
   </g>
   <g id="patch_3">
    <path d="M 30.103125 228.14 
L 30.103125 10.7 
" style="fill:none;stroke:#ffffff;stroke-linecap:square;stroke-linejoin:miter;"/>
   </g>
   <g id="patch_4">
    <path d="M 364.903125 228.14 
L 364.903125 10.7 
" style="fill:none;stroke:#ffffff;stroke-linecap:square;stroke-linejoin:miter;"/>
   </g>
   <g id="patch_5">
    <path d="M 30.103125 228.14 
L 364.903125 228.14 
" style="fill:none;stroke:#ffffff;stroke-linecap:square;stroke-linejoin:miter;"/>
   </g>
   <g id="patch_6">
    <path d="M 30.103125 10.7 
L 364.903125 10.7 
" style="fill:none;stroke:#ffffff;stroke-linecap:square;stroke-linejoin:miter;"/>
   </g>
   <g id="legend_1">
    <g id="patch_7">
     <path d="M 281.007813 33.65625 
L 357.903125 33.65625 
Q 359.903125 33.65625 359.903125 31.65625 
L 359.903125 17.7 
Q 359.903125 15.7 357.903125 15.7 
L 281.007813 15.7 
Q 279.007813 15.7 279.007813 17.7 
L 279.007813 31.65625 
Q 279.007813 33.65625 281.007813 33.65625 
z
" style="fill:#e5e5e5;opacity:0.8;stroke:#cccccc;stroke-linejoin:miter;stroke-width:0.5;"/>
    </g>
    <g id="line2d_26">
     <path d="M 283.007813 23.798437 
L 303.007813 23.798437 
" style="fill:none;stroke:#e24a33;stroke-linecap:square;stroke-width:1.5;"/>
    </g>
    <g id="line2d_27"/>
    <g id="text_13">
     <!-- p_accept -->
     <defs>
      <path d="M 18.109375 8.203125 
L 18.109375 -20.796875 
L 9.078125 -20.796875 
L 9.078125 54.6875 
L 18.109375 54.6875 
L 18.109375 46.390625 
Q 20.953125 51.265625 25.265625 53.625 
Q 29.59375 56 35.59375 56 
Q 45.5625 56 51.78125 48.09375 
Q 58.015625 40.1875 58.015625 27.296875 
Q 58.015625 14.40625 51.78125 6.484375 
Q 45.5625 -1.421875 35.59375 -1.421875 
Q 29.59375 -1.421875 25.265625 0.953125 
Q 20.953125 3.328125 18.109375 8.203125 
z
M 48.6875 27.296875 
Q 48.6875 37.203125 44.609375 42.84375 
Q 40.53125 48.484375 33.40625 48.484375 
Q 26.265625 48.484375 22.1875 42.84375 
Q 18.109375 37.203125 18.109375 27.296875 
Q 18.109375 17.390625 22.1875 11.75 
Q 26.265625 6.109375 33.40625 6.109375 
Q 40.53125 6.109375 44.609375 11.75 
Q 48.6875 17.390625 48.6875 27.296875 
z
" id="DejaVuSans-70"/>
      <path d="M 50.984375 -16.609375 
L 50.984375 -23.578125 
L -0.984375 -23.578125 
L -0.984375 -16.609375 
z
" id="DejaVuSans-5f"/>
      <path d="M 34.28125 27.484375 
Q 23.390625 27.484375 19.1875 25 
Q 14.984375 22.515625 14.984375 16.5 
Q 14.984375 11.71875 18.140625 8.90625 
Q 21.296875 6.109375 26.703125 6.109375 
Q 34.1875 6.109375 38.703125 11.40625 
Q 43.21875 16.703125 43.21875 25.484375 
L 43.21875 27.484375 
z
M 52.203125 31.203125 
L 52.203125 0 
L 43.21875 0 
L 43.21875 8.296875 
Q 40.140625 3.328125 35.546875 0.953125 
Q 30.953125 -1.421875 24.3125 -1.421875 
Q 15.921875 -1.421875 10.953125 3.296875 
Q 6 8.015625 6 15.921875 
Q 6 25.140625 12.171875 29.828125 
Q 18.359375 34.515625 30.609375 34.515625 
L 43.21875 34.515625 
L 43.21875 35.40625 
Q 43.21875 41.609375 39.140625 45 
Q 35.0625 48.390625 27.6875 48.390625 
Q 23 48.390625 18.546875 47.265625 
Q 14.109375 46.140625 10.015625 43.890625 
L 10.015625 52.203125 
Q 14.9375 54.109375 19.578125 55.046875 
Q 24.21875 56 28.609375 56 
Q 40.484375 56 46.34375 49.84375 
Q 52.203125 43.703125 52.203125 31.203125 
z
" id="DejaVuSans-61"/>
      <path d="M 48.78125 52.59375 
L 48.78125 44.1875 
Q 44.96875 46.296875 41.140625 47.34375 
Q 37.3125 48.390625 33.40625 48.390625 
Q 24.65625 48.390625 19.8125 42.84375 
Q 14.984375 37.3125 14.984375 27.296875 
Q 14.984375 17.28125 19.8125 11.734375 
Q 24.65625 6.203125 33.40625 6.203125 
Q 37.3125 6.203125 41.140625 7.25 
Q 44.96875 8.296875 48.78125 10.40625 
L 48.78125 2.09375 
Q 45.015625 0.34375 40.984375 -0.53125 
Q 36.96875 -1.421875 32.421875 -1.421875 
Q 20.0625 -1.421875 12.78125 6.34375 
Q 5.515625 14.109375 5.515625 27.296875 
Q 5.515625 40.671875 12.859375 48.328125 
Q 20.21875 56 33.015625 56 
Q 37.15625 56 41.109375 55.140625 
Q 45.0625 54.296875 48.78125 52.59375 
z
" id="DejaVuSans-63"/>
      <path d="M 56.203125 29.59375 
L 56.203125 25.203125 
L 14.890625 25.203125 
Q 15.484375 15.921875 20.484375 11.0625 
Q 25.484375 6.203125 34.421875 6.203125 
Q 39.59375 6.203125 44.453125 7.46875 
Q 49.3125 8.734375 54.109375 11.28125 
L 54.109375 2.78125 
Q 49.265625 0.734375 44.1875 -0.34375 
Q 39.109375 -1.421875 33.890625 -1.421875 
Q 20.796875 -1.421875 13.15625 6.1875 
Q 5.515625 13.8125 5.515625 26.8125 
Q 5.515625 40.234375 12.765625 48.109375 
Q 20.015625 56 32.328125 56 
Q 43.359375 56 49.78125 48.890625 
Q 56.203125 41.796875 56.203125 29.59375 
z
M 47.21875 32.234375 
Q 47.125 39.59375 43.09375 43.984375 
Q 39.0625 48.390625 32.421875 48.390625 
Q 24.90625 48.390625 20.390625 44.140625 
Q 15.875 39.890625 15.1875 32.171875 
z
" id="DejaVuSans-65"/>
      <path d="M 18.3125 70.21875 
L 18.3125 54.6875 
L 36.8125 54.6875 
L 36.8125 47.703125 
L 18.3125 47.703125 
L 18.3125 18.015625 
Q 18.3125 11.328125 20.140625 9.421875 
Q 21.96875 7.515625 27.59375 7.515625 
L 36.8125 7.515625 
L 36.8125 0 
L 27.59375 0 
Q 17.1875 0 13.234375 3.875 
Q 9.28125 7.765625 9.28125 18.015625 
L 9.28125 47.703125 
L 2.6875 47.703125 
L 2.6875 54.6875 
L 9.28125 54.6875 
L 9.28125 70.21875 
z
" id="DejaVuSans-74"/>
     </defs>
     <g transform="translate(311.007813 27.298437)scale(0.1 -0.1)">
      <use xlink:href="#DejaVuSans-70"/>
      <use x="63.476562" xlink:href="#DejaVuSans-5f"/>
      <use x="113.476562" xlink:href="#DejaVuSans-61"/>
      <use x="174.755859" xlink:href="#DejaVuSans-63"/>
      <use x="229.736328" xlink:href="#DejaVuSans-63"/>
      <use x="284.716797" xlink:href="#DejaVuSans-65"/>
      <use x="346.240234" xlink:href="#DejaVuSans-70"/>
      <use x="409.716797" xlink:href="#DejaVuSans-74"/>
     </g>
    </g>
   </g>
  </g>
 </g>
 <defs>
  <clipPath id="p5942da9c00">
   <rect height="217.44" width="334.8" x="30.103125" y="10.7"/>
  </clipPath>
 </defs>
</svg>
